<?xml version="1.0" encoding="UTF-8"?><svg version="1.1" width="596px" height="596px" viewBox="0 0 596.0 596.0" xmlns="http://www.w3.org/2000/svg" xmlns:xlink="http://www.w3.org/1999/xlink"><defs><clipPath id="i0"><path d="M808,0 L808,807 L0,807 L0,0 L808,0 Z"></path></clipPath><clipPath id="i1"><path d="M177.342223,0 C275.020646,0 354.68578,79.6664675 354.68578,177.343557 C354.68578,275.021979 275.020646,354.687113 177.342223,354.687113 C79.6664675,354.687113 0,275.021979 0,177.343557 C0,79.6664675 79.6664675,0 177.342223,0 Z M177.342223,9.97997505 C85.1611204,9.97997505 9.97730839,85.1611204 9.97730839,177.343557 C9.97730839,269.525993 85.1611204,344.709805 177.342223,344.709805 C269.52466,344.709805 344.708472,269.525993 344.708472,177.343557 C344.708472,85.1611204 269.52466,9.97997505 177.342223,9.97997505 Z"></path></clipPath><clipPath id="i2"><path d="M297.507256,0 C461.36818,0 595.013179,133.646333 595.013179,297.507256 C595.013179,461.369513 461.36818,595.014512 297.507256,595.014512 C133.646333,595.014512 0,461.369513 0,297.507256 C0,133.646333 133.646333,0 297.507256,0 Z M297.507256,9.97997505 C139.140985,9.97997505 9.97864172,139.143652 9.97864172,297.507256 C9.97864172,455.873527 139.140985,585.037204 297.507256,585.037204 C455.873527,585.037204 585.035871,455.873527 585.035871,297.507256 C585.035871,139.143652 455.873527,9.97997505 297.507256,9.97997505 Z"></path></clipPath><clipPath id="i3"><path d="M302.660577,469.021494 L302.024578,508.609395 L269.46066,508.609395 L269.46066,495.037429 L284.664622,495.037429 L284.851288,478.865469 C284.863167,477.893108 279.95616,477.036295 275.163326,476.541735 L274.479956,476.473574 C271.981098,476.232883 269.579326,476.09481 267.997997,476.09481 C254.148698,476.09481 245.366053,487.97478 245.366053,505.52007 C245.366053,522.954693 253.811365,532.996001 267.096666,532.996001 C277.343307,532.996001 283.760624,528.582679 285.788619,520.306699 L302.788576,520.306699 C300.424582,536.858658 287.025949,547.119966 266.534,547.119966 C243.339392,547.119966 228.026097,530.898673 228.026097,505.409403 C228.026097,480.0308 243.686057,464.037507 266.083335,463.422841 C280.537965,463.026842 291.599271,464.964171 302.660577,469.021494 Z M160.436932,433.078917 L174.955563,440.196233 L161.830262,468.474829 L177.234224,476.02681 C185.278203,479.969467 188.792861,478.104138 193.066184,469.678826 L196.818175,462.112178 C198.740836,458.228188 200.635498,455.444195 202.720827,453.806865 L218.61412,461.597513 L217.560789,463.865507 C214.255464,463.97884 213.087467,466.498834 211.023472,470.686823 L206.751483,479.109469 C202.386161,487.737447 198.467504,491.509438 190.672857,490.65744 C196.412842,496.196093 197.33284,504.072073 193.214184,512.944051 C186.7102,526.958683 176.310226,529.905342 161.006264,522.402694 L126.767683,505.618736 L160.436932,433.078917 Z M401.801662,466.437501 C413.560299,488.685445 407.869647,509.726726 387.251032,520.621365 C366.632417,531.517338 346.140468,524.312023 334.384497,502.062745 C322.62586,479.8148 328.19518,458.774853 348.813795,447.87888 C369.43241,436.984241 390.047025,444.188223 401.801662,466.437501 Z M355.376445,460.300183 C343.388475,466.634833 340.756481,479.065469 348.865794,494.412097 C356.972441,509.754726 368.727078,514.58538 380.715048,508.250729 C392.797685,501.865412 395.525678,489.382777 387.415031,474.038815 C379.307052,458.694853 367.459081,453.914865 355.376445,460.300183 Z M155.982277,481.078797 L147.088966,500.234749 L164.846255,508.938728 C171.615571,512.257386 176.495559,510.566724 179.396885,504.314739 C182.484877,497.660089 180.408882,493.052101 173.050234,489.446776 L155.982277,481.078797 Z M439.621568,374.735063 L441.505563,376.377726 C440.693565,379.584384 442.78956,381.40838 446.237551,384.555039 L453.142867,391.001689 C460.216183,397.593673 462.748176,402.406994 459.764184,409.656309 C466.680167,405.682986 474.50148,406.988316 481.877462,413.413633 C493.529433,423.558941 493.4681,434.368247 482.005462,446.981549 L456.361526,475.202812 L396.04701,422.688277 L406.920316,410.718973 L430.433591,431.192255 L441.970895,418.49762 C447.996213,411.86697 447.181549,407.97098 440.277566,401.52433 L434.053582,395.816344 C430.856256,392.888351 428.709595,390.296358 427.717597,387.836364 L439.621568,374.735063 Z M99.9890834,369.952408 L111.802387,383.132375 L102.813076,398.345671 L123.93969,421.916279 L140.194316,414.812296 L151.928954,427.90693 L71.5358212,460.501515 L58.5891869,446.056218 L99.9890834,369.952408 Z M453.698866,426.246934 L440.913564,440.316233 L456.842858,454.185531 L470.141491,439.548234 C475.210812,433.969582 474.942813,428.812261 469.745492,424.285606 C464.213506,419.469618 459.209519,420.181616 453.698866,426.246934 Z M95.5450945,410.802973 L77.2664735,442.418894 L110.689057,427.698931 L95.5450945,410.802973 Z M281.105964,130.198341 C288.623878,130.686622 296.090742,131.774973 303.435241,133.453 L303.435241,261.26468 L390.720357,261.26468 C387.83103,229.594093 372.489735,201.427496 349.653793,181.726212 L349.653793,153.207617 C388.385696,178.679553 414.048298,222.520777 414.048298,272.17132 C414.048298,321.821862 388.385696,365.664419 349.653793,391.136355 L349.653793,362.619093 C372.364402,343.027142 387.664364,315.059212 390.67369,283.595291 L303.435241,283.595291 L303.435241,410.892306 C296.090621,412.569684 288.623809,413.658028 281.105964,414.146965 Z M260.852681,130.297008 L260.852681,414.046965 C253.326952,413.470019 245.859532,412.291141 238.52207,410.52164 C176.094226,395.477678 129.467676,339.101819 129.467676,272.17132 C129.467676,223.187442 154.440947,179.848884 192.303519,154.234281 L192.303519,183.098209 C170.332908,202.72616 155.619611,230.319424 152.794285,261.26468 L238.52207,261.26468 L238.52207,133.822332 C245.85966,132.053476 253.327028,130.874606 260.852681,130.297008 Z M238.52207,283.595291 L152.846285,283.595291 C157.554273,332.815168 192.339519,373.477733 238.52207,386.907033 L238.52207,283.595291 Z M489.34811,346.483134 C495.852094,346.483134 501.158747,351.788454 501.158747,358.293771 C501.158747,364.797755 495.852094,370.103075 489.34811,370.103075 C482.842793,370.103075 477.537473,364.797755 477.537473,358.293771 C477.537473,351.788454 482.842793,346.483134 489.34811,346.483134 Z M52.246536,342.719143 C58.7505198,342.719143 64.0558399,348.024463 64.0558399,354.52978 C64.0558399,361.033764 58.7505198,366.339084 52.246536,366.339084 C45.741219,366.339084 40.4358989,361.033764 40.4358989,354.52978 C40.4358989,348.024463 45.741219,342.719143 52.246536,342.719143 Z M546.063968,247.799381 L545.138637,265.42867 L528.226679,270.043325 L526.56935,301.576579 L542.910643,307.81123 L541.989312,325.325853 L462.948176,292.692602 L463.960173,273.365983 L546.063968,247.799381 Z M79.9304668,241.051397 L79.9304668,256.718025 L50.1572079,256.718025 L50.1572079,287.94328 L79.9304668,287.94328 L79.9304668,303.607241 L0,303.607241 L0,287.94328 L35.4945779,287.94328 L35.4945779,256.718025 L0,256.718025 L0,241.051397 L79.9304668,241.051397 Z M514.444047,273.887315 L479.581468,283.759291 L513.257384,296.489925 L514.444047,273.887315 Z M532.11867,190.072858 C538.250654,209.671476 532.322669,223.444775 516.728042,228.322096 C508.930728,230.76209 502.284078,229.486093 496.861425,224.356772 C492.742768,220.439449 489.421443,215.002129 485.386787,208.395479 C478.305471,196.848841 476.490809,191.051522 469.32416,193.294183 C463.529508,195.106179 461.576179,200.692832 464.14684,208.911478 C467.081499,218.288788 472.594819,222.231444 480.137466,220.450116 L484.817455,235.414078 C469.48016,239.635401 457.397523,232.078086 451.825537,214.270131 C445.857552,195.198179 450.909539,182.512877 465.557503,177.927555 C473.458816,175.455561 480.250799,176.452892 485.305453,180.772881 C490.016108,184.734205 492.849435,190.095525 496.132093,195.780844 C503.645408,208.700812 506.993399,214.591464 513.950715,212.416802 C520.270699,210.439474 522.120028,204.884821 519.249369,195.718177 C515.98671,185.286203 510.412057,180.783548 501.621413,182.262211 L496.806758,166.876916 C513.193384,162.67426 526.086685,170.788906 532.11867,190.072858 Z M32.1145864,139.854317 L45.5892194,145.294303 L29.5332595,185.059537 L48.2038795,192.598185 L62.2238444,157.879605 L74.6358134,162.890259 L60.6185151,197.611506 L76.0611432,203.84349 L91.3824382,165.895585 L103.997073,170.988906 L82.7264598,223.674107 L10.1093081,194.354181 L32.1145864,139.854317 Z M99.5904177,59.1931854 L101.411746,60.9091811 C100.474415,64.0865065 102.49841,65.991835 105.823735,69.2731602 L112.475719,75.99181 C119.290368,82.8624595 121.635696,87.7757806 118.365037,94.9117627 C125.438353,91.207772 133.209,92.8224346 140.334316,99.5370845 C151.588954,110.143725 151.102289,120.950364 139.140985,133.114334 L112.386386,160.330266 L54.1265313,105.439736 L65.4731696,93.8957653 L88.1837795,115.297045 L100.222416,103.054409 C106.509067,96.658425 105.847735,92.7291015 99.195752,86.0104516 L93.1944337,80.0571332 C90.113108,77.0051408 88.0664465,74.3251475 87.1717821,71.8278204 L99.5904177,59.1931854 Z M458.53352,72.7944847 C473.486816,86.8704495 475.070812,101.781079 463.872174,113.679716 C458.272188,119.627701 451.852204,121.773029 444.613555,119.961033 C439.102902,118.567704 433.541583,115.453045 426.786933,111.677054 C414.952296,105.081071 410.528307,100.919748 405.382987,106.387734 C401.221664,110.807723 402.256328,116.635708 408.525645,122.53836 C415.681627,129.27301 422.421611,130.005008 428.121596,124.758355 L439.536234,135.502328 C428.237596,146.700967 414.001632,146.038302 400.413666,133.247667 C385.863035,119.551701 384.048373,106.018402 394.567014,94.8410962 C400.241666,88.8131113 406.650983,86.3517841 413.173634,87.6384476 C419.222952,88.783778 424.320273,92.0677698 429.966925,95.4117615 C442.84956,102.986409 448.656212,106.483734 453.653533,101.17708 C458.192188,96.3544258 457.080191,90.6064402 450.085541,84.0237899 C442.126895,76.5318087 435.061579,75.3384783 428.12293,80.9397977 L416.386959,69.8878253 C428.608262,58.1958545 443.82289,58.945186 458.53352,72.7944847 Z M111.647721,111.262389 L98.3077542,124.833021 L113.693049,139.330318 L127.569014,125.21302 C132.858335,119.833034 132.793001,114.663713 127.773014,109.934392 C122.429027,104.898404 117.39704,105.41707 111.647721,111.262389 Z M365.861752,16.3332925 C385.215037,23.2132753 392.349686,36.9692409 385.52437,55.2318619 L367.623081,103.149075 L352.057787,97.6144226 L369.345743,51.3385383 C373.5244,40.1532329 371.272405,33.4279164 360.753765,29.6852591 C350.340457,25.983935 344.13914,29.8252588 340.000483,40.9065644 L322.70986,87.179782 L307.039232,81.6091293 L324.941854,33.6932491 C331.764504,15.4279614 346.296468,9.37730989 365.861752,16.3332925 Z M195.814177,8.05464653 L202.480827,93.3104334 L184.787538,101.14908 L124.833021,39.5052346 L140.975648,32.3519191 L152.742285,45.3465533 L181.612879,32.5519186 L179.775551,15.1612954 L195.814177,8.05464653 Z M183.100876,46.7265498 L162.407594,55.8958603 L186.986199,82.5184604 L183.100876,46.7265498 Z M294.212598,0 L294.711263,14.7079632 L251.304705,16.1799596 L251.99537,36.5625753 L289.893942,35.2759118 L290.352607,48.8252113 L252.455369,50.1118747 L253.026034,66.9664992 L294.451264,65.5625028 L294.916596,79.333135 L237.410073,81.2837968 L234.72208,2.01866162 L294.212598,0 Z"></path></clipPath></defs><g transform="translate(-106.0 -106.0)"><g clip-path="url(#i0)"><g transform="translate(106.34241831000003 701.3259150200004) scale(1.0 -1.0)"><g transform="translate(120.76503141999996 121.17703039000028)"><g clip-path="url(#i1)"><polygon points="0,0 354.68578,0 354.68578,354.687113 0,354.687113 0,0" stroke="none" fill="#FFFFFF"></polygon></g></g><g transform=""><g clip-path="url(#i2)"><polygon points="0,0 595.013179,0 595.013179,595.014512 0,595.014512 0,0" stroke="none" fill="#FFFFFF"></polygon></g></g><g transform="translate(26.09060144 25.57060274000014)"><g clip-path="url(#i3)"><polygon points="0,0 546.063968,0 546.063968,547.119966 0,547.119966 0,0" stroke="none" fill="#FFFFFF"></polygon></g></g></g></g></g></svg>