<?xml version="1.0" encoding="UTF-8"?>
<svg width="568px" height="159px" viewBox="0 0 568 159" version="1.1" xmlns="http://www.w3.org/2000/svg" xmlns:xlink="http://www.w3.org/1999/xlink">
    <title>muenze-oesterreich</title>
    <g id="Page-1" stroke="none" stroke-width="1" fill="none" fill-rule="evenodd">
        <g id="munze-osterreich" transform="translate(-42.000000, -34.000000)" fill="#FFFFFF" fill-rule="nonzero">
            <g id="Group" transform="translate(42.300000, 34.600000)">
                <path d="M146.2,71.7 L158.3,71.7 C157.9,67.2 157.1,62.7 156,58.4 C146.8,24.9 116.9,1.2 82.1,0 L82.1,45.8 L94.7,45.8 L94.8,13.7 C117.7,19.1 136.1,36 143.4,58.3 C144.7,62.7 145.7,67.2 146.2,71.7 M63.6,45.8 L76.2,45.8 L76.2,0 C41.4,1.2 11.5,24.8 2.3,58.4 C1.2,62.8 0.4,67.2 0,71.7 L12.1,71.7 C12.6,67.2 13.5,62.7 14.9,58.4 C22.3,36.1 40.7,19.2 63.6,13.8 L63.6,45.8 L63.6,45.8 L63.6,45.8 Z" id="Shape"></path>
                <path d="M0.5,78.8 C0.5,79.2 0.5,79.6 0.5,80 C0.5,122.9 35.8,157.6 79.2,157.6 C122.6,157.6 158,122.8 158,80 C158,79.6 158,79.2 158,78.8 L146,78.8 C146,79.2 146,79.6 146,80 C146,116.4 116.1,145.9 79.2,145.9 C42.3,145.9 12.3,116.4 12.3,80 C12.3,79.6 12.3,79.2 12.3,78.8 L0.5,78.8 L0.5,78.8 Z" id="Path"></path>
                <path d="M567.4,130.7 L567.4,91.3 L560,91.3 L560,107.1 L541.6,107.1 L541.6,91.3 L534.2,91.3 L534.2,130.7 L541.6,130.7 L541.6,113.9 L560,113.9 L560,130.7 L567.4,130.7 L567.4,130.7 Z M495.6,111 C495.7,103.5 501.8,97.4 509.4,97.4 C513.8,97.3 518,99.4 520.5,103 L526.7,98.5 C522.5,93.3 516.2,90.3 509.5,90.4 C497.4,90.4 487.9,99.4 487.9,110.9 C487.9,122.4 497.5,131.4 509.5,131.4 C516.2,131.5 522.5,128.5 526.7,123.4 L520.7,119.1 C516.1,125.3 507.4,126.5 501.2,121.9 C497.7,119.4 495.7,115.3 495.6,111 M472.5,130.7 L480.1,130.7 L480.1,91.3 L472.7,91.3 L472.7,130.7 L472.5,130.7 Z M352.5,68.1 L383.4,68.1 L383.4,61.2 L359.9,61.2 L359.9,51.4 L379.8,51.4 L379.8,44.4 L360,44.4 L360,35.6 L383.5,35.6 L383.5,28.7 L352.6,28.7 L352.5,68.1 L352.5,68.1 L352.5,68.1 Z M324.6,61.2 L345.9,28.7 L313.2,28.7 L313.2,35.6 L333,35.6 L312,68.1 L345.7,68.1 L345.7,61.2 L324.7,61.2 L324.6,61.2 Z M407.2,91.3 L388.2,91.3 L388.2,130.7 L395.6,130.7 L395.6,118.3 L404.7,118.3 L413.1,130.7 L422.4,130.7 L412.3,116.7 C417.7,115.3 421.6,110.5 421.7,104.8 C421.7,97 416.2,91.3 407.2,91.3 M414.4,104.8 C414.4,108.3 412,111.4 406.8,111.4 L395.6,111.4 L395.6,98.1 L406.7,98.1 C412,98.2 414.4,101.3 414.4,104.8 M278.3,43.9 L304.3,68.9 L304.3,28.7 L296.9,28.7 L296.9,52.9 L270.9,27.9 L270.9,68.1 L278.3,68.1 L278.3,43.9 L278.3,43.9 Z M364.6,91.3 L345.4,91.3 L345.4,130.7 L352.8,130.7 L352.8,118.3 L362,118.3 L370.4,130.7 L379.7,130.7 L369.6,116.7 C375,115.3 378.9,110.5 379,104.8 C379.1,97.1 373.5,91.3 364.6,91.3 M371.6,104.8 C371.6,108.3 369.2,111.4 364,111.4 L352.8,111.4 L352.8,98.1 L364,98.1 C369.3,98.2 371.6,101.3 371.6,104.8 M261.4,52 L261.4,28.7 L254,28.7 L254,50.5 C254,57.7 249.3,62 243.6,62 C237.9,62 233.2,57.7 233.2,50.5 L233.2,28.7 L225.7,28.7 L225.7,52 C225.7,61.1 232.8,68.9 243.6,68.9 C254.4,68.9 261.5,61.2 261.4,52 M240.4,34.6 L246.3,34.6 L246.3,22.5 L240.4,22.5 L240.4,34.6 Z M208.9,68.1 L216.4,68.1 L216.4,27.9 L198.5,45.6 L180.6,27.9 L180.6,68.1 L188,68.1 L188,43.8 L198.5,54.4 L208.9,43.8 L208.9,68.1 L208.9,68.1 L208.9,68.1 Z M297.6,91.3 L266.5,91.3 L266.5,98.2 L278.3,98.2 L278.3,130.7 L285.9,130.7 L285.9,98.2 L297.7,98.2 L297.6,91.3 L297.6,91.3 Z M235.7,101.9 C235.7,99.5 238,96.6 244.2,96.6 C248.3,96.6 252.3,98.2 255.1,101.3 L260.6,96.5 C256.3,92.4 250.5,90.2 244.6,90.5 C235.4,90.5 227.9,95.3 227.9,102.4 C227.9,118.5 253.9,110 253.9,118.8 C253.9,122.6 249.9,124.6 244.3,124.7 C239.8,124.6 235.5,122.7 232.4,119.4 L226.8,124.4 C231.3,129.1 237.6,131.7 244.1,131.7 C253.3,131.7 261.9,126.7 261.9,118.5 C261.7,101.9 235.7,110.8 235.7,101.9 M222.1,111 C222,100.7 214.2,92 204,90.8 L204,84.3 L197.3,84.3 L197.3,90.7 C186.8,92.1 178.8,100.5 178.8,111 C178.8,122.5 188.4,131.5 200.4,131.5 C212.5,131.6 222.1,122.5 222.1,111 M214.4,111 C214.5,118.6 208.4,124.9 200.8,124.9 C193.2,125 186.9,118.9 186.9,111.3 C186.8,103.7 192.9,97.4 200.5,97.4 C200.6,97.4 200.6,97.4 200.7,97.4 C208.1,97.4 214.3,103.4 214.4,111 M336.7,91.3 L305.7,91.3 L305.7,130.7 L336.7,130.7 L336.7,123.8 L313.2,123.8 L313.2,113.9 L333,113.9 L333,107 L313.1,107 L313.1,98.2 L336.7,98.2 L336.7,91.3 L336.7,91.3 Z M462.9,91.3 L431.9,91.3 L431.9,130.7 L462.8,130.7 L462.8,123.8 L439.3,123.8 L439.3,113.9 L459.1,113.9 L459.1,107 L439.2,107 L439.2,98.2 L462.7,98.2 L462.9,91.3 L462.9,91.3 Z" id="Shape"></path>
            </g>
        </g>
    </g>
</svg>