<svg xmlns="http://www.w3.org/2000/svg" viewBox="0 0 132 39.71"><defs><style>.cls-1{fill:#fff;}</style></defs><title>PAMP</title><g id="Layer_2" data-name="Layer 2"><g id="Layer_1-2" data-name="Layer 1"><path class="cls-1" d="M10.46 0c5.51 0 9.7 2.67 9.7 7.41s-4.53 8-9.32 8a7 7 0 0 1-3.1-.59c3.64-.21 7.59-2.45 7.59-6.52 0-3.73-2.63-5.21-6-5.21a17.23 17.23 0 0 0-3 .25v19.07c0 2.37 0 4.07 2.2 5.33v.13H.12v-.13C2.28 27 2 23.85 2 21.94V6C2 4.07 2.28 1 .16.12V0zM121.91 0c5.5 0 9.7 2.67 9.7 7.41s-4.53 8-9.32 8a7.09 7.09 0 0 1-3.09-.59c3.64-.21 7.58-2.46 7.58-6.52 0-3.73-2.62-5.21-6-5.21a17.27 17.27 0 0 0-3 .25v19.09c0 2.37 0 4.07 2.2 5.34v.13h-8.43v-.13c2.16-.76 1.91-3.9 1.91-5.8V6c0-1.91.25-5-1.87-5.85V0zM34 17.41l-2.2 6c-.89 2.37-1.19 3.6.85 4.36v.13h-7.8v-.13c2.46-1.23 3.18-3.6 4.11-6L36 4.07c.6-1.53 1.4-3.3-.63-3.94V0h6.7l8.81 21.73c1 2.41 1.73 4.79 4.15 6v.13h-8.64v-.13c2.07-.93 1.73-1.4.59-4.36l-2.29-6zM39.31 3.6l-4.19 10.68h8.34zM89.22 2.67A7.37 7.37 0 0 0 89.86 0h7.33v.12c-1 .3-1.31 1.53-1.31 2.5l2.8 20.81c.25 2 .46 3.13 2.16 4.32v.13h-8.18v-.13c1.48-.47 1.74-1.73 1.74-3.18L92 4.15l-9.51 24.28c-2.12-1.61-2.71-2.75-3.73-5.13L70.71 4.19 68.3 22.41c-.34 2.58-.64 4.45 1.36 5.33v.13h-6.91v-.13c1.78-1.57 2-3.64 2.37-5.93l2.41-17.74c.17-1.18.64-2.87-1.31-3.94V0h7.41a5.1 5.1 0 0 0 .6 2l8 18.68zM129.25 23.14a2.41 2.41 0 1 1-2.47 2.41 2.39 2.39 0 0 1 2.47-2.41m0 4.31a1.9 1.9 0 1 0-1.82-1.9 1.83 1.83 0 0 0 1.82 1.9m-1-3.26h1c.68 0 1.06.22 1.06.81a.68.68 0 0 1-.71.72l.72 1.18h-.56l-.66-1.16h-.33v1.16h-.54zm.54 1.13h.47c.3 0 .53 0 .53-.38s-.31-.33-.55-.33h-.45zM2 32.69c1.06 0 1.86.51 1.86 1.42a1.66 1.66 0 0 1-1.79 1.53 1.37 1.37 0 0 1-.59-.11 1.4 1.4 0 0 0 1.45-1.25c0-.71-.5-1-1.15-1a3.33 3.33 0 0 0-.57 0V37c0 .45 0 .78.42 1H0c.41-.15.37-.75.37-1.11v-3.05c0-.37 0-1-.36-1.12zM4.78 34.3a.79.79 0 0 0 .5-.11v.62a1.09 1.09 0 0 1 1-.62h.29V35a.5.5 0 0 0-.37-.13c-.62 0-.88.33-.88 1.16v1.14c0 .37 0 .67.31.88H4.25c.36-.2.31-.51.31-.88v-1.98c0-.37 0-.67-.3-.87zM7.1 36.2a2 2 0 0 1 2.15-2 2 2 0 0 1 2 1.94 2 2 0 0 1-2.12 2A2 2 0 0 1 7.1 36.2m3.36.1c0-.79-.42-1.57-1.29-1.57a1.24 1.24 0 0 0-1.24 1.32 1.42 1.42 0 0 0 1.28 1.55 1.25 1.25 0 0 0 1.26-1.31M15.16 32.69c.19 0 .38 0 .47-.13v4.58c0 .37 0 .68.31.87h-1.02V36.3a2.17 2.17 0 0 0-.13-1 1.15 1.15 0 0 0-1.05-.58 1.26 1.26 0 0 0-1.18 1.33A1.48 1.48 0 0 0 14 37.61a1.29 1.29 0 0 0 .7-.23l-.48.73a1.51 1.51 0 0 1-.42 0 2 2 0 1 1 1.12-3.48v-1.04c0-.37 0-.67-.31-.88zM19.58 34.3c.21 0 .46 0 .61-.11v3c0 .37 0 .68.31.86h-1v-.53a1.22 1.22 0 0 1-1.17.63c-1 0-1.42-.55-1.42-1.69V35.2c0-.37 0-.67-.31-.88h.53a.8.8 0 0 0 .5-.11v2.12c0 .75.21 1.21.92 1.21a1 1 0 0 0 .93-1.06v-1.27c0-.38 0-.68-.31-.89zM21.57 34.3a.79.79 0 0 0 .53-.13v3c0 .37 0 .68.31.88h-1.33c.36-.2.31-.51.31-.88v-1.98c0-.37 0-.67-.31-.87zm.15-.49a.52.52 0 0 1-.53-.54.51.51 0 0 1 .53-.48.51.51 0 0 1 0 1M24.27 36.46c0 .31-.1 1.15.77 1.15a.89.89 0 0 0 .32-.08l-.43.58a.94.94 0 0 1-.26 0c-1.26 0-1.15-1.3-1.15-1.62v-1.65H23v-.29c.76-.13 1-.7 1-1.45h.32v1.2H25a.65.65 0 0 0 .31 0v.7c-.13-.17-.37-.15-.59-.15h-.49zM28.33 35a2.1 2.1 0 0 0-1-.26c-.27 0-.76.06-.76.39 0 .72 2.2.46 2.2 1.75 0 .76-.77 1.27-1.82 1.27a2.8 2.8 0 0 1-1.06-.2l-.28-.8a2.77 2.77 0 0 0 1.53.45c.33 0 .89-.11.89-.53 0-.82-2.2-.56-2.2-1.8 0-.86.89-1.09 1.59-1.09a3.52 3.52 0 0 1 .9.11zM33.17 36l-.42 1.15c-.17.46-.23.69.16.84h-1.5a1.83 1.83 0 0 0 .79-1.16l1.36-3.39c.11-.29.27-.63-.12-.76h1.28l1.69 4.17a1.92 1.92 0 0 0 .8 1.16h-1.66c.4-.18.33-.27.11-.84L35.22 36zm1-2.65l-.81 2H35zM38.14 34.3a.78.78 0 0 0 .5-.11v.62a1.09 1.09 0 0 1 1-.62h.29V35a.5.5 0 0 0-.37-.13c-.62 0-.88.33-.88 1.16v1.14c0 .37 0 .67.31.88h-1.38c.36-.2.31-.51.31-.88v-1.98c0-.37 0-.67-.3-.87zM41.43 36.46c0 .31-.1 1.15.77 1.15a.88.88 0 0 0 .32-.08l-.43.58a1 1 0 0 1-.26 0c-1.26 0-1.15-1.3-1.15-1.62v-1.65h-.55v-.29c.76-.13 1-.7 1-1.45h.33v1.2h.76a.65.65 0 0 0 .31 0v.7c-.13-.17-.37-.15-.58-.15h-.49zM43.44 34.3a.78.78 0 0 0 .53-.13v3c0 .37 0 .68.31.88h-1.33c.36-.2.31-.51.31-.88v-1.98c0-.37 0-.67-.31-.87zm.15-.49a.52.52 0 0 1-.53-.54.51.51 0 0 1 .53-.48.51.51 0 0 1 0 1M47.51 35a2.09 2.09 0 0 0-1-.26c-.27 0-.76.06-.76.39 0 .72 2.2.46 2.2 1.75 0 .76-.77 1.27-1.82 1.27a2.79 2.79 0 0 1-1.06-.2l-.28-.8a2.76 2.76 0 0 0 1.53.45c.33 0 .89-.11.89-.53 0-.82-2.21-.56-2.21-1.8 0-.86.9-1.09 1.59-1.09a3.5 3.5 0 0 1 .9.11zM49.63 36.46c0 .31-.09 1.15.77 1.15a.88.88 0 0 0 .32-.08l-.43.58a1 1 0 0 1-.26 0c-1.26 0-1.15-1.3-1.15-1.62v-1.65h-.55v-.29c.76-.13 1-.7 1-1.45h.32v1.2h.77a.66.66 0 0 0 .31 0v.7c-.13-.17-.37-.15-.58-.15h-.49zM51.65 34.3a.78.78 0 0 0 .53-.13v3c0 .37 0 .68.31.88h-1.33c.36-.2.31-.51.31-.88v-1.98c0-.37 0-.67-.31-.87zm.15-.49a.52.52 0 0 1-.53-.54.51.51 0 0 1 .53-.48.51.51 0 0 1 0 1M56.28 35a3 3 0 0 0-.88-.13 1.32 1.32 0 0 0-1.45 1.34 1.41 1.41 0 0 0 1.46 1.44 1.31 1.31 0 0 0 .66-.14v.09l-.33.5a1.47 1.47 0 0 1-.56.09 1.85 1.85 0 0 1-2-1.82 2 2 0 0 1 2.28-2h1.92c-.36.2-.31.5-.31.87v3.6c0 .37 0 .67.31.89H56c.36-.22.31-.51.31-.89zM61 34.3c.21 0 .46 0 .61-.11v3c0 .37 0 .68.31.86h-1v-.53a1.22 1.22 0 0 1-1.17.63c-1 0-1.42-.55-1.42-1.69V35.2c0-.37 0-.67-.31-.88h.53a.81.81 0 0 0 .5-.11v2.12c0 .75.21 1.21.92 1.21a1 1 0 0 0 .93-1.06v-1.27c0-.38 0-.68-.31-.89zM63.27 36a1.52 1.52 0 0 0 1.62 1.57 2.15 2.15 0 0 0 1.33-.43l-.41.76a3 3 0 0 1-1.12.2 2.11 2.11 0 0 1-2.33-2 1.91 1.91 0 0 1 2-2 1.75 1.75 0 0 1 1.89 1.9zm2.13-.47a.94.94 0 0 0-1-.84 1 1 0 0 0-1.05.84zM69.3 35a2.11 2.11 0 0 0-1-.26c-.27 0-.76.06-.76.39 0 .72 2.21.46 2.21 1.75 0 .76-.77 1.27-1.82 1.27a2.79 2.79 0 0 1-1.06-.2l-.28-.8a2.76 2.76 0 0 0 1.53.45c.33 0 .89-.11.89-.53 0-.82-2.2-.56-2.2-1.8 0-.86.89-1.09 1.59-1.09a3.53 3.53 0 0 1 .9.11zM77.44 33.2a1.39 1.39 0 0 0 .12-.51H79c-.19.06-.25.29-.25.48l.54 4a1 1 0 0 0 .42.83H78.1c.28-.09.33-.33.33-.61l-.43-3.9-1.82 4.66a2 2 0 0 1-.71-1l-1.58-3.65-.46 3.5c-.06.49-.12.85.26 1h-1.33a1.67 1.67 0 0 0 .46-1.14l.46-3.41c0-.23.12-.55-.25-.75h1.42a.93.93 0 0 0 .11.37l1.53 3.59zM80.83 36a1.52 1.52 0 0 0 1.63 1.57 2.14 2.14 0 0 0 1.33-.43l-.41.76a3 3 0 0 1-1.12.2 2.11 2.11 0 0 1-2.33-2 1.91 1.91 0 0 1 2-2 1.75 1.75 0 0 1 1.88 1.9zm2.17-.43a.94.94 0 0 0-1-.84 1 1 0 0 0-1.05.84zM85.49 36.46c0 .31-.1 1.15.77 1.15a.89.89 0 0 0 .33-.08l-.43.58a1 1 0 0 1-.26 0c-1.26 0-1.15-1.3-1.15-1.62v-1.65h-.55v-.29c.76-.13 1-.7 1-1.45h.33v1.2h.76a.67.67 0 0 0 .31 0v.7c-.13-.17-.37-.15-.59-.15h-.49zM90.36 38.14c-.53 0-1.07-.19-1.07-.85V36a3.42 3.42 0 0 1-.78.25c-.39.09-.83.18-.83.67s.45.67.88.67a2.09 2.09 0 0 0 .59-.11l-.48.61a2.63 2.63 0 0 1-.42 0 1.26 1.26 0 0 1-1.39-1.2c0-1.51 2.43-.81 2.43-1.7 0-.39-.48-.52-.78-.52a2.52 2.52 0 0 0-1.11.33l.54-.81.53-.05c.88 0 1.54.25 1.55 1.24v1.22c0 .64 0 .89.69 1zM94 34.3c.21 0 .46 0 .61-.11v3c0 .37 0 .68.31.86h-1v-.53a1.22 1.22 0 0 1-1.17.63c-1 0-1.42-.55-1.42-1.69V35.2c0-.37 0-.67-.31-.88h.53a.81.81 0 0 0 .5-.11v2.12c0 .75.21 1.21.92 1.21a1 1 0 0 0 .93-1.06v-1.27c0-.38 0-.68-.31-.89zM96.41 37.45c-.15.17-.36.39 0 .56h-1.33l1.74-1.94L96 35a2.23 2.23 0 0 0-.69-.67h.62a.81.81 0 0 1 .72.34l.7.93.53-.62c.16-.2.4-.5 0-.63h1.32L97.68 36l.89 1.18a3 3 0 0 0 .83.82h-.88a.63.63 0 0 1-.51-.33l-.84-1.15zM104.2 32.69c1.06 0 1.86.51 1.86 1.42a1.66 1.66 0 0 1-1.79 1.53 1.36 1.36 0 0 1-.6-.11 1.4 1.4 0 0 0 1.46-1.25c0-.71-.51-1-1.15-1a3.34 3.34 0 0 0-.57 0V37c0 .45 0 .78.42 1h-1.62c.42-.15.37-.75.37-1.11v-3.05c0-.37 0-1-.36-1.12zM107 34.3a.78.78 0 0 0 .49-.11v.62a1.09 1.09 0 0 1 1-.62h.29V35a.5.5 0 0 0-.37-.13c-.62 0-.88.33-.88 1.16v1.14c0 .37 0 .67.31.88h-1.36c.36-.2.31-.51.31-.88v-1.98c0-.37 0-.67-.3-.87zM109.93 36a1.52 1.52 0 0 0 1.63 1.57 2.13 2.13 0 0 0 1.33-.43l-.41.76a3 3 0 0 1-1.12.2 2.11 2.11 0 0 1-2.33-2 1.91 1.91 0 0 1 2-2 1.75 1.75 0 0 1 1.88 1.9zm2.13-.47a.94.94 0 0 0-1-.84 1 1 0 0 0-1.05.84zM116.53 35.13a1.34 1.34 0 0 0-1-.4 1.29 1.29 0 0 0-1.36 1.32 1.6 1.6 0 0 0 1.69 1.55 2.08 2.08 0 0 0 1.19-.4l-.42.77a3 3 0 0 1-1.07.16 2 2 0 0 1-2.22-1.88 2.08 2.08 0 0 1 2.32-2.07 4 4 0 0 1 .88.1zM117.74 34.3a.78.78 0 0 0 .53-.13v3c0 .37 0 .68.31.88h-1.36c.36-.2.31-.51.31-.88v-1.98c0-.37 0-.67-.31-.87zm.16-.49a.52.52 0 0 1-.53-.54.51.51 0 0 1 .53-.48.51.51 0 0 1 0 1M120.09 36a1.52 1.52 0 0 0 1.62 1.57 2.15 2.15 0 0 0 1.33-.43l-.41.76a3 3 0 0 1-1.12.2 2.11 2.11 0 0 1-2.33-2 1.91 1.91 0 0 1 2-2 1.75 1.75 0 0 1 1.89 1.9zm2.13-.47a.94.94 0 0 0-1-.84 1 1 0 0 0-1 .84zM126.56 34.3c.21 0 .46 0 .61-.11v3c0 .37 0 .68.31.86h-1v-.53a1.22 1.22 0 0 1-1.17.63c-1 0-1.41-.55-1.41-1.69V35.2c0-.37 0-.67-.31-.88h.53a.79.79 0 0 0 .49-.11v2.12c0 .75.21 1.21.92 1.21a1 1 0 0 0 .93-1.06v-1.27c0-.38 0-.68-.31-.89zM129 37.45c-.15.17-.36.39 0 .56h-1.32l1.74-1.94-.84-1.07a2.3 2.3 0 0 0-.69-.67h.62a.8.8 0 0 1 .71.34l.7.93.52-.62c.17-.2.4-.5 0-.63h1.35L130.28 36l.89 1.18a3 3 0 0 0 .83.82h-.88a.62.62 0 0 1-.51-.33l-.84-1.15z"/></g></g></svg>