<svg xmlns="http://www.w3.org/2000/svg" viewBox="0 0 176 46.79"><defs><style>.cls-1{fill:#fff;fill-rule:evenodd;}</style></defs><title>perthmint</title><g id="Layer_2" data-name="Layer 2"><g id="Layer_1-2" data-name="Layer 1"><path class="cls-1" d="M7 37.08a20.61 20.61 0 0 1-4.17-6.85c.77 1 1.65 1.54 2.57 1.28a.49.49 0 0 0 .36-.43 21.07 21.07 0 0 0 3.64 5.86c6.53 7 15.76 6.51 16 7.3.34 1-9.55 2.29-18.45-7.16M4.84 11.8c-.34 1.2-.32 2.2.44 2.68a.39.39 0 0 0 .47 0 20.22 20.22 0 0 0-1.68 8.26 22 22 0 0 0 .61 5.14c.27 1.3.5 2.33 0 2.34-.75 0-2.29-1.48-2.9-3.71a18.34 18.34 0 0 1-.29-3.17A22 22 0 0 1 4.84 11.8zm2.52 10.47a.57.57 0 0 0 .64-.22 20.23 20.23 0 0 0 1.24 7.19A16.68 16.68 0 0 0 11.35 33c.6.81 1 1.41.49 1.65s-3.81-1.89-5-4.75a22.51 22.51 0 0 1-1.27-7.66 18.39 18.39 0 0 1 .28-3.2c.01 1.81.46 3.06 1.51 3.23zm5 6.3c.42 0 .61-.39.66-.93a16.2 16.2 0 0 0 1.45 2.88c2.1 3.82 5.73 5.78 5.69 6.15C20 38 15 35.55 12.46 32a17.22 17.22 0 0 1-2.51-5.18 2.65 2.65 0 0 0 2.4 1.76zm.82-8.79c.11 1.93.75 3.27 1.78 3.3.33 0 .54-.26.65-.63v.27a19.4 19.4 0 0 0 .68 2.55c.25 1 .34 1.68-.1 1.9-.72.37-2.43-1.37-2.94-3.59a9.25 9.25 0 0 1-.09-3.8zm3.61 8.58c.28-.09.43-.36.49-.73.89 1.84 2 3.4 1.71 3.83-.56 1-2.71-1-4.24-3.89a2.51 2.51 0 0 0 2.03.79zm2.09-3.83a.77.77 0 0 0 .54-.52c0 .11.08.23.12.34.56 1.61 1.49 2.88 1.21 3.49-.49 1.06-2.32-1.05-3.25-3.15a10.38 10.38 0 0 1-.42-1.14c.51.67 1.14 1.15 1.78.98zm2.85-1.19a.56.56 0 0 0 .5-.37c.27.7 1.26 2.13.89 2.5-.7.7-2.23-1.14-2.66-2.06l-.26-.59a2 2 0 0 0 1.52.52zm1.71 17.56c.43 1.3-6.26.5-11.15-3.35A16.48 16.48 0 0 1 9.66 35c1.44 1.09 2.56 1.27 3.25.95.27-.13.28-.51.1-1 .26.26.53.52.82.77 4.17 4.12 9.46 4.75 9.6 5.17zm20.94-12.6C43.14 20.88 31 18.78 31 13.68c0-3.45 2.12-4.19 4-4.19 2.08 0 3.46 1.45 3.09 2.43a4.79 4.79 0 0 0-.17 3c.6 1.29 1.33 1.53 1.7 3.47a9.43 9.43 0 0 1 .16 2.2 6.37 6.37 0 0 0 .9-4 3.35 3.35 0 0 0-1.14-2.15c.45.35.82.58 1.09.46a.72.72 0 0 1 0-1 .54.54 0 0 1 .79.17c.34.44 0 .66-.11 1a1.4 1.4 0 0 0 .16 1.15c1.45-2.48 1.85-4 .63-6.2a8 8 0 0 0-7.18-4c-4.75 0-6.59 3-7.18 4.75a7.78 7.78 0 0 0-.51 2.65c0 5.4 3.28 7.79 6.84 9.94s2.38 4.93-.69 4.93c-4.69 0-10.69-2.79-10.69-11.08 0-10.34 8.49-12.8 8.49-12.8a12.3 12.3 0 0 0-9.79 12.19c0 .7 0 1.48.08 2.28.16 2.07.33 3.39-.27 3.39s-1.27-.25-1.79-1.51a9.88 9.88 0 0 1-.47-3.2 9.8 9.8 0 0 0-.27 2.75c.16 1.59.35 3.06-.15 3.2-.75.21-2-1.66-2.06-3.44a14.33 14.33 0 0 1 .93-5.39 8.16 8.16 0 0 0-1.79 4.14c-.28 2.09-.21 3-.86 2.82-.86-.17-1.59-2.84-.46-5.8a14.12 14.12 0 0 1 2.55-4.45c-2.83 1.78-5 6.11-5 10.09a17.1 17.1 0 0 0 .45 3.83c.13 1 .14 1.9-.24 2-1.35.2-3.12-3.24-2.8-6.53.68-6.9 5.45-11.64 11-14.29-6 1.67-11.52 6.29-12.17 13.8-.11.42-.28.64-.61.5-1-.42-1.71-3.68.6-7.65C11.5 7.34 18.15 3.5 25.77 2.83a20.91 20.91 0 0 0-18.86 9.42c-.39.52-.72.82-1 .65-.59-.43-.2-2.56.85-3.85a22.48 22.48 0 0 1 17-8.4A31.49 31.49 0 0 1 32 1.71 24.17 24.17 0 0 0 23.42 0 22.91 22.91 0 0 0 0 23.33C0 36.2 10.86 46.79 23.77 46.79a22.06 22.06 0 0 0 4.48-.49A25.31 25.31 0 0 0 38 41.62c5.4-4.69 7-9.89 6.38-13.32zM58.57 11.72c-.21-.42-.55-.55-1.34-.55h-.78v5.2c0 1.2.16 1.49.67 1.6v.11H54.59V18c.51-.12.62-.48.62-1.6v-5.2h-.73c-.79 0-1.13.13-1.34.55H53l.12-1.45h5.44l.12 1.45zM67.21 18.07h-1.27V18c.45-.11.63-.37.63-1.6v-1.96h-3.9v1.93c0 1.21.17 1.49.65 1.6v.11h-2.51V18c.5-.12.62-.47.62-1.6V12c0-1.1-.11-1.52-.62-1.63v-.11h2.51v.11c-.48.11-.65.47-.65 1.63v1.53h3.9V12c0-1.12-.15-1.55-.63-1.63v-.11h2.52v.11c-.52.12-.65.5-.65 1.63v4.37c0 1.16.14 1.49.65 1.6v.11h-1.25M75.71 18.08h-5V18c.53-.11.62-.54.62-1.62V12c0-1.09-.1-1.51-.62-1.62v-.11h5.1v1.45h-.12c-.27-.55-.71-.55-1.69-.55h-1.47v2.32H74c.89 0 1.24-.18 1.4-.61h.1v2.08h-.1c-.11-.41-.51-.59-1.4-.59h-1.47v2.07c0 .71.24.71 1 .71h.77c.94 0 1.33-.2 1.49-.63h.11zM58.75 29.19c-.32 0-.69-.07-.92-.09l-.58-1.72h.19a4.26 4.26 0 0 0 .88.09 2.75 2.75 0 0 0 3-2.61c0-1.55-1.13-2.44-3.42-2.44a8 8 0 0 0-1.64.13v9.54c0 2.16.25 2.88 1.15 3v.2h-4.62v-.2c.92-.22 1.15-.87 1.15-3v-8.15c0-2-.21-2.81-1.15-3v-.22h5.1a14.66 14.66 0 0 1 2.12.13c2.4.35 3.79 1.76 3.79 4 0 2.75-2.36 4.38-5.08 4.38M74.43 35.25h-9.37v-.2c1-.2 1.15-1 1.15-3v-8.13c0-2-.18-2.81-1.15-3v-.2h9.49v2.7h-.23c-.51-1-1.32-1-3.14-1h-2.66v4.31h2.77c1.66 0 2.31-.33 2.61-1.13h.19v3.9h-.19c-.21-.76-.95-1.09-2.61-1.09h-2.77v3.86c0 1.33.44 1.33 1.87 1.33h1.43c1.75 0 2.47-.37 2.77-1.18h.21zM88 35.4c-1.32 0-1.69-.37-2.42-1.44l-4.41-6.41.12-.15a4.82 4.82 0 0 0 .95.09c2.19 0 3.37-1.13 3.37-2.64s-1.09-2.53-3.51-2.53a9.62 9.62 0 0 0-1.8.13v9.61c0 2.13.25 2.77 1.15 3v.2h-4.62v-.2c.92-.22 1.15-.89 1.15-3v-8.14c0-2-.21-2.81-1.15-3v-.2h5.66c3.69 0 5.5 1.57 5.5 4 0 2-1.18 3.44-3.42 3.94l3.67 5.05c.65.89.95 1.26 1.59 1.42v.2c-.9.09-1.64.11-1.82.11M100.3 23.42c-.39-.78-1-1-2.49-1h-1.46v9.67c0 2.22.3 2.77 1.25 3v.2h-4.71v-.2c.95-.22 1.15-.89 1.15-3V22.4h-1.37c-1.48 0-2.1.24-2.49 1H90l.23-2.7h10.07l.23 2.7zM114.29 35.23h-2.36v-.2c.83-.2 1.18-.7 1.18-3v-3.55h-7.25v3.59c0 2.24.32 2.77 1.2 3v.2h-4.67v-.2c.92-.22 1.16-.87 1.16-3v-8.13c0-2-.21-2.83-1.16-3v-.2h4.67v.2c-.9.2-1.2.87-1.2 3v2.86h7.25v-2.86c0-2.09-.28-2.88-1.18-3v-.2H116.62v.2c-1 .22-1.2.94-1.2 3v8.13c0 2.16.25 2.77 1.2 3v.2h-2.33M139.05 35.21h-2v-.2c.46-.11.76-.33.76-.72 0-.11 0-.39-.07-.54l-1.38-7.7-4.36 9.34h-.23l-4.63-9.3-1.26 7.38a5 5 0 0 0-.12.87c0 .37.3.59.79.72v.2h-4.09v-.2c.92-.3 1.06-.89 1.41-2.37L126 20.5h.23l5.57 10.93 5.47-10.93h.25l2.32 12.24c.37 1.55.58 2 1.41 2.31v.2h-2.19M144.68 35.21h-2.38v-.2c.92-.22 1.15-.85 1.15-3v-8.09c0-2-.21-2.81-1.15-3v-.2H146.94v.2c-.95.2-1.18.94-1.18 3v8.15c0 2.18.28 2.77 1.18 3v.2h-2.26M162.68 23.92V35.6h-.21l-10.53-10.5v7c0 2.2.3 2.9 1.27 3v.2h-4.48v-.2c.92-.22 1.15-.87 1.15-3V20.39h.21l10.53 10.4v-6.87c0-2.18-.25-3-1.32-3v-.2h4.48v.2c-1 .2-1.11 1.11-1.11 3M175.77 23.42c-.39-.78-1-1-2.49-1h-1.45v9.67c0 2.22.3 2.77 1.25 3v.2h-4.71v-.2c.95-.22 1.15-.89 1.15-3V22.4h-1.36c-1.48 0-2.1.24-2.49 1h-.23l.23-2.7h10.12l.23 2.7zM69 39.63v3a4 4 0 0 1-.3 1.82 3 3 0 0 1-2.91 1.49 3.2 3.2 0 0 1-2.84-1.37 3 3 0 0 1-.36-1.7v-3.24c0-1.1-.11-1.51-.62-1.62v-.11h2.48v.1c-.51.11-.62.53-.62 1.62v2.9a4 4 0 0 0 .15 1.34 1.85 1.85 0 0 0 1.8 1.14 1.9 1.9 0 0 0 1.65-.8 2.81 2.81 0 0 0 .29-1.53v-3c0-1.12-.14-1.51-.62-1.62v-.15h2.49v.1c-.5.11-.62.5-.62 1.62M73.78 45.92a5.53 5.53 0 0 1-1.84-.34l-.11-1.41h.11a2.45 2.45 0 0 0 1.84.81 1.46 1.46 0 0 0 1.59-1.42c0-.73-.52-1-2.4-2a2 2 0 0 1-1-1.72 2.22 2.22 0 0 1 2.43-2.11A10 10 0 0 1 76 38a.37.37 0 0 0 .24-.07h.12v1.45h-.12a2.14 2.14 0 0 0-1.71-.7c-.62 0-1.34.36-1.34 1.08 0 1.52 3.48 1.2 3.48 3.88 0 1.39-1.12 2.31-2.87 2.31M84.7 39.36c-.21-.42-.55-.55-1.34-.55h-.78V44c0 1.19.16 1.49.67 1.6v.11H80.72v-.11c.51-.12.62-.48.62-1.6v-5.2h-.74c-.79 0-1.13.13-1.34.55h-.12l.12-1.45h5.44l.12 1.45zM93.43 45.8c-.71 0-.91-.2-1.3-.77l-2.37-3.44.06-.08a2.62 2.62 0 0 0 .51 0c1.18 0 1.81-.61 1.81-1.42s-.58-1.36-1.89-1.36a5.19 5.19 0 0 0-1 .07V44c0 1.15.14 1.49.62 1.6v.11h-2.48v-.11c.5-.12.62-.48.62-1.6v-4.37c0-1.08-.11-1.51-.62-1.62v-.11h3c2 0 3 .84 3 2.13a2.08 2.08 0 0 1-1.84 2.12l2 2.72c.35.48.51.68.86.76v.11c-.48 0-.88.06-1 .06M110.55 45.72h-4.63v-.09c.53-.11.62-.56.62-1.62v-4.38c0-1.08-.11-1.51-.62-1.62v-.11h2.46v.1c-.48.11-.6.53-.6 1.62v3.68c0 1.43 0 1.51.89 1.51h.67c.68 0 1-.08 1.29-.61h.1zM114.19 45.69h-1.28v-.11c.5-.12.62-.46.62-1.6v-4.35c0-1.1-.11-1.51-.62-1.62v-.11h2.49v.1c-.51.11-.63.5-.63 1.62V44c0 1.17.15 1.49.63 1.6v.11h-1.22M60.52 44.89L57 37.77h-.17l-3.33 6.92c-.27.56-.4.87-.81.93v.11h2.23v-.11a.34.34 0 0 1-.32-.35 1.29 1.29 0 0 1 .14-.52l.56-1.21h3.24l.54 1.21a1.09 1.09 0 0 1 .11.42.4.4 0 0 1-.36.45v.11H61.22v-.11a1.28 1.28 0 0 1-.73-.73m-4.8-2.25L57 40l1.18 2.65zM124.83 44.89l-3.49-7.12h-.17l-3.35 6.92c-.27.56-.4.87-.81.93v.11h2.23v-.11a.34.34 0 0 1-.32-.35 1.29 1.29 0 0 1 .14-.52l.56-1.21h3.25l.54 1.21a1.1 1.1 0 0 1 .11.42.4.4 0 0 1-.36.45v.11H125.55v-.11a1.28 1.28 0 0 1-.73-.73M120 42.64l1.26-2.64 1.18 2.65zM103.54 44.89l-3.49-7.12h-.17l-3.35 6.92c-.27.56-.4.87-.81.93v.11h2.23v-.11a.34.34 0 0 1-.32-.35 1.29 1.29 0 0 1 .14-.52l.56-1.21h3.25l.54 1.21a1.1 1.1 0 0 1 .11.42.4.4 0 0 1-.36.45v.11H104.26v-.11a1.28 1.28 0 0 1-.73-.73m-4.8-2.25L100 40l1.18 2.65z"/></g></g></svg>