<?xml version="1.0" encoding="utf-8"?>
<!-- Generator: Adobe Illustrator 25.4.1, SVG Export Plug-In . SVG Version: 6.00 Build 0)  -->
<svg version="1.1" id="Layer_1" xmlns="http://www.w3.org/2000/svg" xmlns:xlink="http://www.w3.org/1999/xlink" x="0px" y="0px"
	 viewBox="0 0 2554.83 1192.96" style="enable-background:new 0 0 2554.83 1192.96;" xml:space="preserve">
<style type="text/css">
	.st0{fill:#FFFFFF;}
</style>
<g>
	<g>
		<path class="st0" d="M1891.42,285.61c-10.04,24.76-22.62,40.1-54.26,40.1h-43.44v-90.89h51.74c7.51,0.29,13.38,6.41,13.38,13.92
			v6.12l6.08,0.09v-52.68l-6.08,0.07v6.12c0,7.54-6.14,13.8-13.68,13.93h-51.45v-93.89h62.31c9.05,0.55,16.13,8.07,16.13,17.14v7.08
			l6.19,0.1v-43.41l-2.11,0.89c-5.72,2.42-23.84,5.45-36.79,5.57l-93.14-0.02l0.09,6.17h5.47c9.51,0,17.45,7.13,18.44,16.43v175.52
			c-0.17,10.04-8.5,18.22-18.56,18.22h-5.45l-0.1,6.17h132.57l19.36-53.67h-6.32L1891.42,285.61z"/>
		<path class="st0" d="M1706.12,332.17c-10.04,0-18.37-8.17-18.56-18.22l-0.02-173.73c0.19-10.04,8.52-18.22,18.56-18.22h5.47
			l0.09-6.15h-71.65l0.1,6.15h5.45c10.03,0,18.18,7.85,18.56,17.81v82.31h-125.25v-82.07c0.27-10.13,8.43-18.05,18.56-18.05h5.47
			l0.09-6.15h-71.67l0.12,6.15h5.45c10.15,0,18.3,7.95,18.56,18.06v173.89c-0.19,10.04-8.52,18.22-18.56,18.22h-5.47l-0.09,6.17
			h71.65l-0.09-6.17h-5.47c-10.04,0-18.37-8.17-18.56-18.2v-79.43h125.25v79.62c-0.31,10.11-8.47,18.01-18.56,18.01h-5.45l-0.1,6.17
			h71.67l-0.1-6.17H1706.12z"/>
		<path class="st0" d="M1425.99,115.85h-105.72c-13.04-0.07-31.31-3.12-37.12-5.57l-2.11-0.89v43.19l6.19-0.1l-0.02-7.08
			c0-9.2,7.22-16.73,16.35-17.12h57.85v186.18c-0.45,9.94-8.57,17.72-18.53,17.72h-5.45l-0.1,6.15h71.62l-0.1-6.15h-5.45
			c-10.08,0-18.22-7.88-18.52-17.91V128.28l57.75-0.02c9.2,0.41,16.4,7.93,16.4,17.14v7.08l6.17,0.1v-43.19l-2.09,0.89
			C1457.29,112.73,1439.02,115.78,1425.99,115.85"/>
	</g>
	<g>
		<path class="st0" d="M264.99,376.84c13.94,10.01,30.18,14.69,46.2,14.4h7.53c-18.18,3.01-32.06,18.64-32.06,37.46v198.47v25.97
			h270.57V390.71H331.46c-7.3,0-13.26-5.84-13.26-13.09s5.95-13.13,13.26-13.13h462.12c7.31,0,13.26,5.87,13.26,13.13
			s-5.95,13.09-13.26,13.09H567.84v262.43h270.52V428.7c0-18.82-13.87-34.45-32.06-37.46h7.24c32.81,0.67,63.57-19.76,74.31-52.19
			c6.6-20.09,4.22-40.95-4.96-58.26c35.42-7.37,73.74-0.44,105.35,22.21c55.36,39.72,70.5,113.8,37.19,171.09
			c-26.11-26-68.24-30.06-99.16-7.89c-34.19,24.51-41.76,71.75-16.97,105.5c24.88,33.74,72.66,41.22,106.84,16.71
			c17.13-12.32,27.62-30.36,30.67-49.52c32.9,14.66,59.69,42.42,71.72,79.02c21.14,64.24-10.67,132.96-71.72,160
			c-5.65-36.2-37.38-63.9-75.59-63.9c-42.28,0-76.5,33.77-76.5,75.48c0,41.73,34.22,75.52,76.5,75.52c21.18,0,40.4-8.55,54.22-22.28
			c17.91,30.95,23.08,68.98,11.02,105.54c-21.14,64.24-87.8,101.38-153.3,87.83c17.01-32.54,7.88-73.4-23.09-95.6
			c-34.18-24.48-82.03-17.01-106.83,16.74c-24.83,33.73-17.27,80.95,16.92,105.46c17.14,12.32,37.75,16.56,57.16,13.44
			c-3.92,35.45-22.41,69.19-53.96,91.77c-55.36,39.73-131.37,31.07-176.31-17.9c33.16-16.48,50.04-54.79,38.25-90.69
			c-9.2-28.06-33.47-47.1-61.06-51.34c9.2-20.13,23.63-38.28,43.08-52.16c21.06-15.18,45.23-23.29,69.49-24.82
			c84.45-3.97,151.59-72.8,151.59-157.1V663.67H567.84v343.6c-3.53-0.26-7.08-0.26-10.62,0v-343.6H286.65V773.9
			c0,83.97,66.58,152.53,150.46,157.07c50.74,2.75,93.89,33.59,113.71,77.01c-3.99,0.64-7.99,1.56-11.91,2.83
			c-40.18,12.91-62.18,55.5-49.1,95.15c6.51,19.91,20.65,35.31,38.25,44.05c-24.34,26.38-59.36,42.94-98.32,42.94
			c-68.43,0-124.8-51.12-132.01-116.78c36.63,5.87,73.15-15.33,84.94-51.27c13.08-39.66-8.93-82.21-49.09-95.13
			c-40.18-12.87-83.33,8.86-96.36,48.47c-6.56,19.94-4.32,40.6,4.7,57.85c-35.34,7.22-73.55,0.3-105.1-22.28
			c-55.36-39.72-70.5-113.8-37.22-171.09c26.11,26.01,68.28,30.06,99.21,7.89c34.18-24.55,41.76-71.73,16.92-105.5
			c-24.83-33.74-72.65-41.22-106.83-16.71c-17.15,12.32-27.62,30.32-30.59,49.52c-32.93-14.65-59.74-42.41-71.75-78.98
			c-21.14-64.28,10.67-132.96,71.71-160.05c5.67,36.2,37.34,63.96,75.59,63.96c42.25,0,76.49-33.82,76.49-75.52
			c0-41.7-34.25-75.52-76.49-75.52c-21.21,0-40.43,8.56-54.25,22.28c-17.9-30.95-23.03-68.97-11.02-105.5
			c21.18-64.4,87.99-101.49,153.57-87.8C224.82,313.41,233.9,354.52,264.99,376.84 M666.09,342.24c0-7.21,5.95-13.09,13.26-13.09
			c7.35,0,13.3,5.88,13.3,13.09c0,7.25-5.95,13.13-13.3,13.13C672.04,355.37,666.09,349.49,666.09,342.24 M432.42,342.24
			c0-7.21,5.91-13.09,13.26-13.09c7.31,0,13.27,5.88,13.27,13.09c0,7.25-5.96,13.13-13.27,13.13
			C438.33,355.37,432.42,349.49,432.42,342.24 M562.55,329.15l18.76,13.09l-18.76,13.13l-18.78-13.13L562.55,329.15z M338.13,347.27
			l-11.61,8.1l-18.8-13.13l9-6.25l-12.5-37.99c-18.7-53.17-1.06-114.33,47.46-149.11c10.3-7.36,21.33-13.08,32.72-17.22
			c33.88-11.49,71.67-6.02,99.94,13.32c11.33,7.78,27.84,16.18,41.49,19.46c12.2,2.98,24.45,4.98,36.66,4.98
			c12.28,0,24.48-2.01,36.71-4.98c13.63-3.28,30.14-11.68,41.52-19.46c28.23-19.33,66.02-24.81,99.9-13.32
			c11.41,4.14,22.42,9.86,32.71,17.22c48.53,34.78,66.16,95.95,47.52,149.11l-12.51,37.99l8.97,6.25l-18.8,13.13l-11.61-8.1
			l21.37-64.93c-1.09,0.3-2.18,0.5-3.35,0.71c-2.83,0.49-5.69,0.75-8.71,0.75c-2.93,0-5.87-0.26-8.71-0.75
			c-14.15-2.45-26.26-10.71-33.79-22.2v61.61c7.53-11.5,19.63-19.76,33.79-22.18c-2.44,13.95-10.8,25.96-22.45,33.33
			c-7.88,4.95-17.22,7.85-27.24,7.85c-22.42,0-41.43-14.43-48.06-34.6c-2.14-6.81,1.66-14.14,8.55-16.29
			c6.98-2.27,14.48,1.49,16.75,8.4c2.14,6.45-1.1,13.36-7.29,16.03c11.34,1.64,22.55-4.98,26.19-16.06
			c4.11-12.39-2.78-25.71-15.32-29.73c-7.51-2.38-15.3-0.93-21.26,3.24c-1.77-15.1-8.1-29.42-18.01-40.81
			c-9.92,11.47-16.28,25.67-18.08,40.74c-5.92-4.13-13.72-5.55-21.13-3.17c-12.56,4.02-19.42,17.34-15.35,29.73
			c3.66,11.12,14.85,17.71,26.2,16.06c-6.19-2.67-9.42-9.59-7.27-16.03c2.26-6.91,9.76-10.67,16.73-8.4
			c6.98,2.23,10.82,9.6,8.52,16.47l-0.2,0.56c-6.74,19.72-25.59,33.86-47.82,33.86c-10.02,0-19.37-2.9-27.2-7.85
			c-11.67-7.37-20.04-19.38-22.49-33.33c14.17,2.42,26.27,10.67,33.76,22.18v-61.61c-7.49,11.49-19.59,19.75-33.76,22.2
			c2.45-13.98,10.82-25.97,22.49-33.34h-62.45c11.66,7.36,20.05,19.35,22.5,33.34c-14.16-2.45-26.3-10.71-33.76-22.2v61.61
			c7.45-11.5,19.6-19.76,33.76-22.18c-2.45,13.95-10.84,25.96-22.5,33.33c-7.83,4.95-17.17,7.85-27.19,7.85
			c-22.39,0-41.39-14.43-48.05-34.6c-2.14-6.81,1.66-14.14,8.59-16.29c6.97-2.27,14.42,1.49,16.74,8.4
			c2.11,6.45-1.1,13.36-7.27,16.03c11.3,1.64,22.54-4.98,26.2-16.06c4.06-12.39-2.8-25.71-15.33-29.73
			c-7.51-2.38-15.34-0.93-21.3,3.24c-1.77-15.1-8.06-29.42-17.98-40.81c-9.95,11.47-16.28,25.67-18.08,40.74
			c-5.92-4.13-13.71-5.55-21.17-3.17c-12.55,4.02-19.42,17.34-15.35,29.73c3.66,11.08,14.88,17.71,26.2,16.06
			c-6.18-2.67-9.39-9.59-7.27-16.03c2.26-6.91,9.76-10.67,16.73-8.4c6.9,2.16,10.69,9.42,8.62,16.21l-0.12,0.31
			c-6.59,19.94-25.58,34.37-47.97,34.37c-10.06,0-19.37-2.9-27.24-7.85c-11.65-7.37-20.02-19.38-22.5-33.33
			c14.16,2.42,26.3,10.67,33.76,22.18v-61.61c-7.46,11.49-19.6,19.75-33.76,22.2c-2.82,0.49-5.73,0.75-8.71,0.75
			c-2.98,0-5.88-0.26-8.7-0.75c-1.12-0.22-2.22-0.41-3.35-0.71L338.13,347.27z M514.18,189c-1.5,7.07,3.09,14.07,10.25,15.55
			c7.16,1.53,14.21-3.01,15.75-10.12c1.51-7.07-3.05-14.02-10.23-15.51C522.78,177.39,515.74,181.94,514.18,189 M481.6,174.94
			c-3.13,6.58-0.23,14.36,6.4,17.45c6.63,3.05,14.51,0.22,17.63-6.37c3.09-6.55,0.23-14.36-6.43-17.41
			C492.56,165.57,484.64,168.4,481.6,174.94 M451.9,157.72c-3.65,6.25-1.51,14.28,4.86,17.9c6.34,3.64,14.43,1.46,18.13-4.8
			c3.65-6.29,1.51-14.28-4.87-17.92C463.65,149.27,455.55,151.43,451.9,157.72 M417.98,152.58c-0.76,7.19,4.56,13.62,11.83,14.4
			c7.27,0.75,13.84-4.46,14.59-11.68c0.8-7.18-4.52-13.65-11.8-14.4C425.29,140.12,418.77,145.37,417.98,152.58 M384.87,159.47
			c2.02,6.95,9.38,10.97,16.42,8.97c7.05-1.97,11.12-9.23,9.13-16.22c-2.04-6.96-9.38-10.97-16.45-8.97
			C386.92,145.22,382.86,152.48,384.87,159.47 M356.93,178.33c4.44,5.8,12.73,6.92,18.62,2.57c5.84-4.36,7.01-12.58,2.59-18.34
			c-4.41-5.77-12.72-6.97-18.58-2.58C353.7,164.3,352.53,172.57,356.93,178.33 M336.63,205.6c6.06,4.06,14.35,2.46,18.43-3.53
			c4.11-5.99,2.48-14.14-3.57-18.19c-6.08-4.06-14.33-2.49-18.44,3.53C328.94,193.39,330.51,201.54,336.63,205.6 M326.42,237.93
			c7.08,1.9,14.34-2.27,16.27-9.26c1.89-6.99-2.33-14.17-9.39-16.03c-7.12-1.9-14.38,2.28-16.28,9.26
			C315.11,228.89,319.33,236.07,326.42,237.93 M327.2,271.93c7.31-0.37,12.96-6.55,12.54-13.77c-0.38-7.21-6.59-12.79-13.95-12.38
			c-7.3,0.37-12.91,6.55-12.58,13.76C313.64,266.76,319.86,272.34,327.2,271.93 M562.55,215.61c-7.37,0-13.27,5.87-13.27,13.13
			c0,7.26,5.91,13.09,13.23,13.09c7.35,0,13.35-5.84,13.3-13.09C575.85,221.48,569.85,215.61,562.55,215.61 M610.85,189
			c-1.55-7.07-8.59-11.61-15.75-10.08c-7.17,1.49-11.76,8.44-10.22,15.51c1.51,7.1,8.55,11.65,15.72,10.12
			C607.8,203.07,612.39,196.07,610.85,189 M643.48,174.94c-3.13-6.54-11-9.37-17.63-6.32c-6.67,3.05-9.53,10.86-6.44,17.41
			c3.12,6.58,11,9.41,17.67,6.37C643.71,189.3,646.57,181.52,643.48,174.94 M673.18,157.72c-3.65-6.29-11.79-8.44-18.16-4.83
			c-6.33,3.64-8.53,11.64-4.86,17.92c3.65,6.26,11.78,8.44,18.16,4.8C674.64,172,676.84,163.97,673.18,157.72 M707.05,152.58
			c-0.76-7.21-7.32-12.46-14.59-11.68c-7.31,0.75-12.59,7.22-11.83,14.4c0.76,7.22,7.31,12.43,14.59,11.68
			C702.53,166.2,707.81,159.77,707.05,152.58 M740.18,159.47c2.03-7-2.05-14.25-9.13-16.22c-7-2.01-14.39,2.01-16.39,8.97
			c-2.04,7,2.07,14.25,9.07,16.22C730.83,170.44,738.18,166.42,740.18,159.47 M768.1,178.33c4.41-5.76,3.24-14.03-2.64-18.35
			c-5.79-4.39-14.16-3.19-18.57,2.58c-4.42,5.76-3.26,13.98,2.64,18.34C755.36,185.25,763.7,184.13,768.1,178.33 M788.42,205.6
			c6.1-4.06,7.68-12.2,3.57-18.19c-4.1-6.02-12.33-7.59-18.43-3.53c-6.07,4.06-7.69,12.2-3.58,18.19
			C774.09,208.05,782.34,209.65,788.42,205.6 M798.63,237.93c7.08-1.85,11.26-9.04,9.38-16.03c-1.88-6.99-9.21-11.16-16.29-9.26
			c-7.03,1.86-11.26,9.05-9.38,16.03C784.27,235.66,791.54,239.82,798.63,237.93 M797.84,271.93c7.35,0.41,13.6-5.17,13.97-12.39
			c0.39-7.21-5.23-13.39-12.57-13.76c-7.31-0.4-13.57,5.17-13.95,12.38C784.86,265.38,790.48,271.56,797.84,271.93 M549.27,195.74
			c0,7.26,5.91,13.13,13.27,13.13c7.3,0,13.3-5.87,13.3-13.13c0-7.21-6-13.09-13.3-13.09C555.18,182.65,549.27,188.53,549.27,195.74
			"/>
		<path class="st0" d="M690.01,417.49h21.25l-5.31,5.25h87.61c0.41,0,0.75-0.08,1.13-0.22c0.92-0.41,1.55-1.34,1.55-2.38
			c0-1.45-1.21-2.64-2.68-2.64c-1.04,0-1.99,0.63-2.41,1.56c-0.11-0.49-0.22-1.04-0.22-1.56c0-2.86,2.38-5.21,5.31-5.21
			c2.9,0,5.31,2.35,5.31,5.21h5.32v5.25c2.94,0,5.31,2.34,5.31,5.28c0,2.86-2.37,5.21-5.31,5.21c-0.53,0-1.05-0.07-1.58-0.22
			c0.91-0.4,1.58-1.34,1.58-2.37c0-1.46-1.17-2.61-2.64-2.61c-1.09,0-2.04,0.59-2.45,1.52c-0.14,0.34-0.23,0.67-0.23,1.09v86.48
			l5.32-5.24v20.98l-5.32-5.24v86.54c0,0.37,0.08,0.74,0.23,1.07c0.4,0.93,1.36,1.57,2.42,1.57c1.47,0,2.67-1.19,2.67-2.64
			c0-1.08-0.67-1.98-1.58-2.38c0.53-0.19,1.05-0.26,1.58-0.26c2.94,0,5.31,2.38,5.31,5.28c0,2.86-2.37,5.24-5.31,5.24v5.22h-5.32
			c0,2.9-2.42,5.24-5.31,5.24c-2.93,0-5.31-2.35-5.31-5.24c0-0.52,0.12-1.04,0.22-1.53c0.42,0.93,1.37,1.53,2.41,1.53
			c1.47,0,2.68-1.19,2.68-2.61c0-1.08-0.63-2.01-1.55-2.38c-0.38-0.14-0.72-0.22-1.13-0.22h-87.61l5.31,5.22h-21.25l5.31-5.22
			h-87.65c-0.39,0-0.75,0.08-1.1,0.22c-0.9,0.38-1.58,1.3-1.58,2.38c0,1.42,1.21,2.61,2.68,2.61c1.05,0,2-0.59,2.4-1.53
			c0.2,0.49,0.26,1.01,0.26,1.53c0,2.9-2.36,5.24-5.34,5.24c-2.94,0-5.31-2.35-5.31-5.24h-5.27v-5.22c-2.94,0-5.31-2.38-5.31-5.24
			c0-2.9,2.37-5.28,5.31-5.28c0.51,0,1.05,0.07,1.55,0.26c-0.92,0.4-1.55,1.3-1.55,2.38c0,1.45,1.17,2.64,2.64,2.64
			c1.09,0,2.03-0.64,2.45-1.57c0.12-0.33,0.19-0.7,0.19-1.07V527.6l-5.27,5.24v-20.98l5.27,5.24v-86.48c0-0.41-0.07-0.75-0.19-1.09
			c-0.41-0.93-1.36-1.52-2.45-1.52c-1.47,0-2.64,1.15-2.64,2.61c0,1.03,0.63,1.97,1.55,2.37c-0.49,0.15-1.03,0.22-1.55,0.22
			c-2.94,0-5.31-2.35-5.31-5.21c0-2.94,2.37-5.28,5.31-5.28v-5.25h5.27c0-2.86,2.37-5.21,5.31-5.21c2.99,0,5.34,2.35,5.34,5.21
			c0,0.52-0.06,1.08-0.26,1.56c-0.4-0.93-1.35-1.56-2.4-1.56c-1.47,0-2.68,1.2-2.68,2.64c0,1.04,0.68,1.97,1.58,2.38
			c0.34,0.14,0.71,0.22,1.1,0.22h87.65L690.01,417.49z M796.23,428.02H604.99v188.76h95.64h95.6V428.02z M610.33,433.22h180.59
			v178.27H610.33V433.22z M785.6,535.49c0-0.37-0.07-0.78-0.23-1.08c-0.41-0.93-1.35-1.56-2.41-1.56c-1.5,0-2.67,1.2-2.67,2.64
			c0,1.04,0.64,1.97,1.58,2.38c-0.49,0.15-1.06,0.22-1.58,0.22c-2.95,0-5.31-2.35-5.31-5.25c0-2.9,2.36-5.24,5.31-5.24l-5.31-5.24
			l5.31-5.25c-2.95,0-5.31-2.34-5.31-5.24c0-2.86,2.36-5.21,5.31-5.21c0.52,0,1.1,0.08,1.58,0.19c-0.94,0.44-1.58,1.33-1.58,2.41
			c0,1.46,1.17,2.61,2.67,2.61c1.06,0,2-0.63,2.41-1.53c0.15-0.33,0.23-0.67,0.23-1.08v-65.54h-5.31v-5.25H713.9
			c-0.39,0-0.72,0.08-1.1,0.22c-0.91,0.4-1.55,1.34-1.55,2.38c0,1.48,1.18,2.64,2.64,2.64c1.08,0,2-0.64,2.45-1.57
			c0.11,0.49,0.22,1.04,0.22,1.57c0,2.9-2.38,5.24-5.31,5.24c-2.94,0-5.31-2.35-5.31-5.24l-5.31,5.24l-5.31-5.24
			c0,2.9-2.36,5.24-5.31,5.24c-2.94,0-5.31-2.35-5.31-5.24c0-0.52,0.07-1.08,0.26-1.57c0.38,0.93,1.32,1.57,2.42,1.57
			c1.47,0,2.63-1.16,2.63-2.64c0-1.04-0.65-1.98-1.59-2.38c-0.29-0.14-0.67-0.22-1.04-0.22h-66.45v5.25h-5.27v65.54
			c0,0.41,0.07,0.75,0.22,1.08c0.42,0.9,1.37,1.53,2.42,1.53c1.47,0,2.64-1.15,2.64-2.61c0-1.08-0.64-1.97-1.54-2.41
			c0.49-0.11,1.01-0.19,1.54-0.19c2.94,0,5.31,2.35,5.31,5.21c0,2.91-2.37,5.24-5.31,5.24l5.31,5.25l-5.31,5.24
			c2.94,0,5.31,2.34,5.31,5.24c0,2.91-2.37,5.25-5.31,5.25c-0.53,0-1.05-0.07-1.54-0.22c0.9-0.41,1.54-1.34,1.54-2.38
			c0-1.45-1.17-2.64-2.64-2.64c-1.05,0-2,0.64-2.42,1.56c-0.14,0.3-0.22,0.71-0.22,1.08v65.55h5.27v5.25h66.45
			c0.37,0,0.76-0.11,1.04-0.27c0.94-0.37,1.59-1.33,1.59-2.37c0-1.45-1.17-2.61-2.63-2.61c-1.1,0-2.04,0.64-2.42,1.53
			c-0.19-0.49-0.26-1.01-0.26-1.53c0-2.9,2.37-5.28,5.31-5.28c2.94,0,5.31,2.38,5.31,5.28l5.31-5.28l5.31,5.28
			c0-2.9,2.37-5.28,5.31-5.28c2.93,0,5.31,2.38,5.31,5.28c0,0.52-0.12,1.04-0.22,1.53c-0.45-0.89-1.37-1.53-2.45-1.53
			c-1.47,0-2.64,1.16-2.64,2.61c0,1.04,0.64,2.01,1.55,2.37c0.38,0.16,0.71,0.27,1.1,0.27h66.39v-5.25h5.31V535.49z M764.34,495.39
			c0.04,3.42-1.27,6.81-3.87,9.42c-4.52,4.45-11.57,5.02-16.7,1.66l-9.08,8.94c-2.07,2.04-2.07,5.36,0,7.44l13.26,13.05
			c4.15,4.14,4.15,10.76,0,14.88c-2.86,2.83-7.01,3.69-10.63,2.61l0.49,0.45l10.59,10.49h15.94v31.44h-31.87v-2.61
			c0-7.21,5.99-13.09,13.3-13.09c2.98,0,5.73,0.96,7.99,2.64v-7.89h-21.29l-21.21-20.98h-26.56l21.25,20.98h-63.72v-5.25
			c0-7.25,5.92-13.13,13.26-13.13c5.43,0,10.14,3.27,12.13,7.89h11.76l-26.57-26.22h42.5l-10.62-10.49h-47.83v-5.24
			c0-7.22,5.96-13.1,13.32-13.1c5.41,0,10.1,3.24,12.16,7.85h17.04l10.63-10.45h-21.26l-31.65-31.29l0.11-0.33
			c1.29-5.92,6.56-10.34,12.98-10.34c7.3,0,13.25,5.88,13.25,13.09c0,2.27-0.57,4.39-1.57,6.29l12.2,12.06h15.94v-5.22h2.64
			c3.51,0,6.44-2.23,7.54-5.28h-15.49c-2.94,0-5.31-2.35-5.31-5.21c0-0.56,0.08-1.08,0.22-1.56c0.41,0.93,1.36,1.56,2.46,1.56h18.12
			c-1.1-3.06-4.03-5.25-7.54-5.25h-2.64v-5.24l10.62-10.49h42.51l-10.67,10.49l5.34,5.24v15.74l-21.24,20.94v15.36l20.05,19.84
			c2.14,2.04,5.53,2.04,7.57,0c2.1-2.09,2.1-5.36,0-7.45l-13.23-13.08c-4.16-4.1-4.16-10.73,0-14.86l33.38-32.96V495.39z
			 M477.55,905.17l1.3-11.05c-81.35-5.05-144.73-46.54-144.73-120.05v-15.73l-10.63-10.49v-7.88h5.32h2.64
			c1.27,0,2.52-0.12,3.68-0.34c1.56-0.31,2.99-0.78,4.33-1.42c4.11-1.93,7.43-5.34,9.16-9.51c0.94-2.16,1.43-4.58,1.43-7.03
			c0-2.34-0.41-4.53-1.21-6.58c-1.34-3.5-3.8-6.51-6.89-8.6c-1.32-0.89-2.79-1.6-4.33-2.15c-1.93-0.68-3.99-1.04-6.18-1.04
			c-2.91,0-5.28,2.34-5.28,5.24c0,2.91,2.37,5.24,5.28,5.24c3.68,0,6.66,2.94,6.66,6.54c0,3.61-2.99,6.6-6.66,6.6
			c-10.26,0-18.58-8.23-18.58-18.38c0-10.13,8.36-18.35,18.58-18.35h172.62c11.76,0,21.25,9.38,21.25,20.98v10.49
			c2.99,0,5.35,2.35,5.35,5.25c0,2.86-2.37,5.2-5.35,5.2v183.56l-10.59,3.46V732.1h-5.31v188.81L477.55,905.17z M490.55,797.44
			l-76.72-75.78c-5.95,0-11.81-0.52-17.46-1.48l92.48,91.29L490.55,797.44z M493.41,774l-55.85-55.13c-4.43,1.04-9,1.78-13.63,2.27
			l67.8,66.89L493.41,774z M445.81,716.52l48.73,48.1l3.92-32.52c-2.76-0.15-4.98-2.45-4.98-5.2c0-2.5,1.71-4.54,3.99-5.11
			c-2.74-7.88-9.59-13.88-18.04-15.47c-1.48-0.31-2.98-0.41-4.52-0.41c-4.14,0-8.02,1.01-11.42,2.87
			C457.92,711.87,452,714.51,445.81,716.52 M362.38,712.8l123.68,122.1l1.69-14.07l-105.54-104.2c-6.72-2.2-13.08-4.98-19.07-8.45
			C362.88,709.71,362.61,711.28,362.38,712.8 M482.07,867.71L361.18,748.34c5.48,73.73,55.29,119.22,119.77,128.75L482.07,867.71z
			 M360.68,737.39L483.19,858.3l1.7-14.03l-123.63-122.1c-0.37,4.13-0.58,8.34-0.58,12.54V737.39z M647.5,857.97l10.67,10.49
			l10.58-10.49H647.5z M619.32,856.39l17.54,17.31l5.36-5.25v-15.74l-15.98-15.74h63.77l-15.94,15.74v10.5h95.6
			c2.93,0,5.32-2.34,5.32-5.24c0-2.91-2.38-5.25-5.32-5.25h-82.53l11.98-11.83c2.42-2.37,5.77-3.9,9.46-3.9
			c6.45,0,11.8,4.51,13.05,10.49h48.04c5.87,0,10.63,4.68,10.63,10.49c0,5.76-4.76,10.49-10.63,10.49h-21.26v22.28l-47.78,11.75
			v-5.17c0-2.01,0.46-3.9,1.24-5.58c2.11-4.46,6.71-7.55,12.03-7.55c3,0,5.76,0.97,7.95,2.64l14.88-3.69l-9.59-9.44l-37.14,9.18
			v14.43l-53.15,13.09V907c0-7.22,5.96-13.1,13.32-13.1c2.14,0,4.23,0.53,5.98,1.42l18.96-4.84l-7.42-7.33l-32.55,8l-29.88,29.5
			c-6.3-1.23-10.85-6.55-10.85-12.84c0-7.28,5.91-13.13,13.26-13.13c2.29,0,4.47,0.56,6.36,1.61l14.89-14.69l-34.33-33.89l0.11-0.37
			c1.3-5.93,6.6-10.35,12.98-10.35c7.34,0,13.26,5.88,13.26,13.14C620.93,852.38,620.36,854.5,619.32,856.39 M594.59,774.3
			l0.11-0.38c1.3-5.92,6.6-10.34,12.98-10.34c7.34,0,13.26,5.88,13.26,13.09c0,2.31-0.57,4.43-1.61,6.3l22.9,22.58v-26.23
			l-15.98-15.74h63.77l-15.94,15.74v10.49H785.6c2.94,0,5.31-2.35,5.31-5.25c0-2.9-2.37-5.24-5.31-5.24h-98.46l11.98-11.83
			c2.42-2.42,5.77-3.91,9.46-3.91c6.45,0,11.8,4.51,13.05,10.49h63.97c5.89,0,10.63,4.69,10.63,10.49c0,5.81-4.74,10.49-10.63,10.49
			h21.26l-5.32,31.48h-31.88v-2.64c0-7.25,5.96-13.09,13.3-13.09c3.92,0,7.43,1.67,9.87,4.35l1.62-9.6h-46.05l10.63,10.49
			l-42.46,10.5h-21.26v-2.64c0-7.25,5.93-13.09,13.26-13.09c4.11,0,7.77,1.82,10.21,4.65l8.36-2.01V800.3l-106.22,26.23h-26.52
			v-2.64c0-7.25,5.91-13.09,13.26-13.09c4.59,0,8.67,2.27,11.04,5.8l14.99-3.72L594.59,774.3z M647.5,784.56l10.67,10.49
			l10.58-10.49H647.5z M695.32,753.09v-2.64c0-7.21,5.93-13.06,13.26-13.06c4.11,0,7.77,1.79,10.21,4.64l8.36-2.07V726.9
			l-106.22,26.19h-26.52v-2.64c0-7.21,5.91-13.06,13.26-13.06c4.59,0,8.67,2.27,11.04,5.8l14.99-3.71l-39.11-38.58l0.11-0.37
			c1.3-5.93,6.6-10.35,12.98-10.35c7.34,0,13.26,5.87,13.26,13.1c0,2.3-0.57,4.42-1.61,6.29l22.9,22.54v-26.19l-15.98-15.74h63.77
			l-15.94,15.74v10.49H785.6c2.94,0,5.31-2.38,5.31-5.25c0-2.9-2.37-5.24-5.31-5.24h-98.46l11.98-11.83
			c2.42-2.43,5.77-3.91,9.46-3.91c6.45,0,11.8,4.51,13.05,10.49h63.97c5.89,0,10.63,4.65,10.63,10.49c0,5.77-4.74,10.49-10.63,10.49
			h21.26v31.44h-31.88v-2.64c0-7.21,5.95-13.06,13.25-13.06c3.02,0,5.76,0.94,8,2.57v-7.86h-47.82l10.63,10.49l-42.46,10.5H695.32z
			 M647.5,711.16l10.67,10.49l10.58-10.49H647.5z M371.36,585.3l10.58,10.46l10.63-10.46H371.36z M435.08,627.24h-5.31h-10.64v-2.61
			c0-7.26,5.93-13.13,13.27-13.13c4.07,0,7.72,1.82,10.18,4.72l8.43-2.08v-13.1l-106.26,26.2h-26.56v-2.61
			c0-7.26,5.95-13.13,13.27-13.13c4.62,0,8.65,2.35,11.03,5.8l15.01-3.68l-39.1-38.58l0.09-0.38c1.28-5.92,6.59-10.34,12.97-10.34
			c7.35,0,13.29,5.88,13.29,13.14c0,2.27-0.56,4.38-1.58,6.25L366,606.29v-26.23l-15.94-15.74h63.77l-15.95,15.74v10.49h111.54
			c2.94,0,5.31-2.35,5.31-5.25c0-2.9-2.36-5.24-5.31-5.24h-98.46l11.98-11.83c2.42-2.38,5.73-3.91,9.46-3.91
			c6.4,0,11.76,4.5,13,10.49h64.02c5.89,0,10.58,4.69,10.58,10.49c0,5.77-4.69,10.46-10.58,10.46h21.25v31.48h-31.88v-2.61
			c0-7.26,5.93-13.13,13.27-13.13c2.99,0,5.77,1,7.95,2.64v-7.85h-47.78l10.62,10.49l-42.49,10.46H435.08z M419.13,480.44v-2.64
			c0-7.21,5.93-13.09,13.27-13.09c4.07,0,7.72,1.83,10.18,4.69l8.43-2.04V454.2l-106.26,26.23h-26.56v-2.64
			c0-7.21,5.95-13.09,13.27-13.09c4.62,0,8.65,2.3,11.03,5.76l15.01-3.64l-39.1-38.62l0.09-0.37c1.28-5.87,6.59-10.34,12.97-10.34
			c7.35,0,13.29,5.87,13.29,13.14c0,2.27-0.56,4.38-1.58,6.24L366,459.46v-26.23l-15.94-15.74h63.77l-15.95,15.74v10.49h111.54
			c2.94,0,5.31-2.35,5.31-5.25s-2.36-5.24-5.31-5.24h-98.46l11.98-11.79c2.42-2.42,5.73-3.95,9.46-3.95c6.4,0,11.76,4.5,13,10.53
			h64.02c5.89,0,10.58,4.65,10.58,10.45c0,5.81-4.69,10.49-10.58,10.49h21.25v31.47h-31.88v-2.64c0-7.21,5.93-13.09,13.27-13.09
			c2.99,0,5.77,0.96,7.95,2.64v-7.89h-47.78l10.62,10.49l-42.49,10.49H419.13z M371.36,438.47l10.58,10.49l10.63-10.49H371.36z
			 M419.13,553.84v-2.61c0-7.26,5.93-13.13,13.27-13.13c4.07,0,7.72,1.85,10.18,4.72l8.43-2.09V527.6l-106.26,26.23h-26.56v-2.61
			c0-7.26,5.95-13.13,13.27-13.13c4.62,0,8.65,2.3,11.03,5.8l15.01-3.72l-39.1-38.57l0.09-0.33c1.28-5.92,6.59-10.35,12.97-10.35
			c7.35,0,13.29,5.85,13.29,13.09c0,2.27-0.56,4.43-1.58,6.26L366,532.85v-26.19l-15.94-15.74h63.77l-15.95,15.74v10.45h111.54
			c2.94,0,5.31-2.34,5.31-5.24c0-2.86-2.36-5.21-5.31-5.21h-98.46l11.98-11.82c2.42-2.46,5.73-3.91,9.46-3.91
			c6.4,0,11.76,4.47,13,10.46h64.02c5.89,0,10.58,4.72,10.58,10.49c0,5.81-4.69,10.49-10.58,10.49h21.25v31.48h-31.88v-2.61
			c0-7.26,5.93-13.13,13.27-13.13c2.99,0,5.77,0.96,7.95,2.63v-7.89h-47.78l10.62,10.49l-42.49,10.49H419.13z M371.36,511.87
			l10.58,10.49l10.63-10.49H371.36z"/>
		<path class="st0" d="M552.68,50.77C538.92,53.5,527.28,61.6,520,72.76v-61.6c7.32,11.19,18.99,19.31,32.68,21.98
			c-2.12,2.35-3.44,5.43-3.44,8.82C549.25,45.34,550.56,48.44,552.68,50.77 M553.58,32.25C550.86,18.75,542.65,7.21,531.3,0h62.4
			c-11.34,7.21-19.59,18.75-22.27,32.25c-2.34-2.12-5.47-3.38-8.93-3.38C559.07,28.87,555.91,30.17,553.58,32.25 M572.35,33.14
			c13.67-2.67,25.41-10.79,32.67-21.98v61.6c-7.27-11.2-19-19.31-32.67-21.99c2.15-2.34,3.46-5.43,3.46-8.81
			C575.81,38.57,574.5,35.49,572.35,33.14 M561.84,149.47c-21.27,0-38.52-17.03-38.52-38.01c0-20.98,17.25-38.02,38.52-38.02
			c21.25,0,38.51,17.04,38.51,38.02C600.34,132.44,583.12,149.47,561.84,149.47 M864.65,1068.14c17.22-12.35,41.31-8.59,53.81,8.42
			c12.47,17,8.63,40.73-8.55,53.09c-17.19,12.35-41.26,8.56-53.78-8.42C843.66,1104.23,847.47,1080.46,864.65,1068.14
			 M262.4,1068.96c17.19,12.3,21.03,36.08,8.53,53.04c-12.48,17.01-36.57,20.8-53.8,8.42c-17.18-12.32-20.99-36.09-8.51-53.09
			C221.14,1060.37,245.18,1056.62,262.4,1068.96 M75.14,503.79c-6.59,19.94-28.33,30.88-48.53,24.36
			c-20.24-6.47-31.29-27.94-24.72-47.88c6.59-19.94,28.29-30.87,48.53-24.41C70.63,462.34,81.71,483.81,75.14,503.79
			 M1049.91,501.77c-6.59-19.94,4.52-41.4,24.72-47.91c20.23-6.44,41.94,4.46,48.53,24.44c6.56,19.98-4.52,41.37-24.72,47.88
			C1078.21,532.66,1056.5,521.76,1049.91,501.77"/>
	</g>
	<g>
		<path class="st0" d="M1992.84,721.52c-12.96,0-23.71-10.55-23.95-23.49v-96.31l79.64-128.73c7.65-10.97,21.92-22.67,38.99-22.67
			h7.61v-7.96h-93.64v7.96h7.05c4.73,0,9.55,3.01,12.3,7.65c2.7,4.56,2.83,9.71,0.18,14.53l-62.7,110.13l-58.96-110.07
			c-2.52-4.87-2.32-10.57,0.53-15.28c2.68-4.38,7.12-6.99,11.9-6.99h7.05v-7.94h-103.41v7.94h7.48c16.96,0,32.13,11.79,39.01,22.69
			l76.74,128.31v96.93c-0.35,13.05-10.88,23.29-23.95,23.29h-7.03l-0.13,7.96h92.46l-0.13-7.96H1992.84z"/>
		<path class="st0" d="M2235.46,615.1h-93.97l47.99-122.43L2235.46,615.1z M2303.78,697.24L2195.13,436.7h-6.9v1.95
			c0,6.94-10.7,31.85-14.84,40.91l-91.71,217.66c-8.16,17.91-22.73,24.28-33.66,24.28h-5.62v7.96h85.36v-7.92h-5.53
			c-5.02,0-9.82-2.39-12.52-6.21c-3.01-4.25-3.38-9.89-1.13-16.25l26.63-67.92h106.29l25.39,67.63c2.37,6.48,2.03,12.19-0.97,16.5
			c-2.7,3.87-7.52,6.26-12.56,6.26h-5.51v7.92h95.01v-7.96h-5.33C2326.53,721.5,2311.89,715.13,2303.78,697.24"/>
		<path class="st0" d="M2546.19,661.42c-12.96,31.96-29.19,51.75-70.02,51.75h-56.06V473.86c0.24-12.98,10.99-23.53,23.95-23.53
			l7.05,0.02l0.11-7.96h-92.46l0.11,7.96l7.05-0.02c12.96,0,23.71,10.55,23.95,23.53V698c-0.24,12.96-10.99,23.51-23.95,23.51h-7.03
			l-0.13,7.96h171.08l24.99-69.26h-8.16L2546.19,661.42z"/>
		<path class="st0" d="M1788,586.28c0,79.68-39.48,133.2-98.26,133.2s-98.28-53.52-98.28-133.2c0-79.66,39.5-133.2,98.28-133.2
			S1788,506.62,1788,586.28 M1689.74,437.07c-80.7,0-134.92,59.98-134.92,149.21c0,89.26,54.23,149.23,134.92,149.23
			c80.7,0,134.92-59.98,134.92-149.23C1824.66,497.04,1770.44,437.07,1689.74,437.07"/>
		<path class="st0" d="M1528.94,711.6L1528.94,711.6c-25.9-27.27-45.05-48.54-63.56-69.11c-13.09-14.55-25.52-28.37-39.34-43.19
			c15.52-0.99,29.83-7.63,41.6-19.33c15.64-15.59,24.61-38.35,24.61-62.43c0-45.03-32.49-75.28-80.83-75.28h-111.24l0.13,8.03h7.05
			c12.96,0,23.71,10.55,23.95,23.51l0.02,224.34c-0.4,13.11-10.9,23.38-23.91,23.38h-7.1l-0.13,7.96h92.35l-0.11-7.96h-6.92
			c-13.14,0-23.95-10.55-24.08-23.49l-0.02-239.04l48.37,0.22c28.88,0,46.91,22.29,48.23,59.62c0.29,9.02-0.49,16.76-2.37,23.69
			c-9.93,36.53-45.98,39.41-61.39,40.65c-7.98,0.64-15.55,0.35-19.17,0.22c-0.99-0.04-1.72-0.07-2.14-0.07h-1.95v7.41l1.68,0.22
			c6.59,0.91,14.71,9.46,23.11,18.93c12.01,13.47,31.51,35.05,51.06,56.68c23.18,25.65,47.15,52.17,57.76,64.27
			c31.98,36.47,71.14,71.87,123.91,71.87c10.55,0,21.65-1.42,33.33-4.51l1.46-0.4v-7.76l-2.19,0.29
			C1609.44,796.83,1566.69,751.54,1528.94,711.6"/>
	</g>
	<g>
		<path class="st0" d="M1782.34,1128.65c-12.96,0-23.71-10.55-23.95-23.49V880.72c0.35-13.07,10.88-23.29,23.95-23.29h7.03
			l0.13-7.96h-92.46l0.11,7.96h7.05c13.09,0,23.62,10.26,23.95,23.31v224.4c-0.24,12.96-10.99,23.51-23.95,23.51h-7.05l-0.11,7.96
			h92.46l-0.13-7.96H1782.34z"/>
		<path class="st0" d="M2048.4,857.45l9.4-0.02c12.45,0,22.78,10.15,23.02,22.62l0.02,195.65l-216.86-231.52l-0.58-0.75h-7.25
			l0.38,2.28c0.04,0.22,3.72,23.07,3.72,50.22v210.14c-0.24,12.45-10.57,22.58-23.02,22.58h-9.4l-0.11,7.96H1915l-0.11-7.96h-9.4
			c-12.52,0-22.62-9.8-23.02-22.25l-0.2-196.49l218.03,232.36h6.79l-0.33-2.23c-0.02-0.27-3.67-25.72-3.67-51.33V879.74
			c0.4-12.52,10.5-22.31,23.02-22.31l9.4,0.02l0.11-7.96h-87.33L2048.4,857.45z"/>
		<path class="st0" d="M2404.25,845.18c-7.5,3.16-31.07,7.1-47.9,7.19h-136.43c-16.81-0.09-40.4-4.03-47.9-7.19l-2.72-1.15v55.73
			l7.98-0.11v-9.13c0-11.88,9.29-21.61,21.07-22.11h74.66v240.26c-0.55,12.83-11.06,22.89-23.88,22.89l-7.05-0.02l-0.13,7.96h92.42
			l-0.13-7.96l-7.03,0.02c-13,0-23.51-10.2-23.91-23.13V868.4h74.53c11.88,0.53,21.19,10.24,21.19,22.11l-0.02,9.13l7.98,0.11
			v-55.73L2404.25,845.18z"/>
		<path class="st0" d="M1658.56,1128.65c-14.64,0-25.72-9.49-27.56-23.62l-31.62-261.07h-6.68l-109.14,241.23
			c0,0-34.46-72.42-65.67-140.23c-43-93.39-92.32-126.55-92.32-126.55c-36.79-27.09-76.82-35.98-119.27-25.29v8.08
			c28.89-3.43,57.16,1.22,85.94,23.38c0,0,39.39,29,65.82,73.07l-23.51,207.34c-1.84,14.15-12.89,23.64-27.53,23.64h-8.4v7.96h82.27
			v-7.74h-8.25c-7.25,0-13.82-7.32-13.82-15.3c0-0.33,0-0.66,0.02-0.93l16.06-187.91c10.66,19.43,24.88,51.81,36.22,75.01
			l65.7,142.53h6.75l0.24-1.66c2.54-16.28,13.62-40.56,13.73-40.8l81.98-182.23l17.56,194.44c0.07,0.51,0.09,1.02,0.09,1.55
			c0,7.98-6.59,15.28-13.8,15.3h-8.27v7.74h91.87v-7.96H1658.56z"/>
		<g>
			<path class="st0" d="M2496.38,830.93c25.04,0,45.52,20.49,45.52,45.52c0,25.04-20.48,45.4-45.52,45.4
				c-25.04,0-45.39-20.36-45.39-45.4C2450.99,851.42,2471.35,830.93,2496.38,830.93z M2496.38,914.26
				c20.99,0,37.81-16.95,37.81-37.81c0-20.99-16.82-37.81-37.81-37.81c-20.86,0-37.81,16.82-37.81,37.81
				C2458.57,897.32,2475.52,914.26,2496.38,914.26z M2480.58,855.59c0-1.26,1.01-2.4,2.4-2.4h17.96c7.84,0,15.55,4.68,15.55,14.16
				c0,9.48-6.71,12.9-10.24,13.78c2.53,4.93,5.06,9.99,7.58,14.92c0.89,1.52-0.38,3.41-2.15,3.41h-4.3c-1.01,0-1.9-1.01-2.27-1.77
				l-7.08-15.81h-9.36v15.17c0,1.26-1.01,2.4-2.4,2.4h-3.29c-1.39,0-2.4-1.14-2.4-2.4V855.59z M2500.94,874.56
				c4.68,0,7.58-3.29,7.58-7.21c0-4.3-2.91-7.2-7.58-7.2h-12.4v14.41H2500.94z"/>
		</g>
	</g>
</g>
</svg>
