<svg xmlns="http://www.w3.org/2000/svg" viewBox="0 0 184.07 58"><defs><style>.cls-1{fill:#fff;}</style></defs><title>valcambi</title><g id="Layer_2" data-name="Layer 2"><g id="Layer_1-2" data-name="Layer 1"><path class="cls-1" d="M29.52 34.82c0-2.18 1.62-3 4.91-4.13a10.56 10.56 0 0 1 2.29-.56c.33 0 .56.11.56.72l-.11 3.29a3.29 3.29 0 0 1-.73 2.62A6.31 6.31 0 0 1 33 38.17a3.36 3.36 0 0 1-3.52-3.35m.33-4.07c-3.57 1.28-4.63 2.57-4.63 4.74A5.22 5.22 0 0 0 27 39.4a5.77 5.77 0 0 0 3.91 1.28 8.25 8.25 0 0 0 4-1.39 8.59 8.59 0 0 1 2.18-1.12c.34 0 .67.45.89.78a4.45 4.45 0 0 0 3.63 1.73 5.85 5.85 0 0 0 4.69-2.45c0-.39-.17-.72-.39-.72s-.45.22-.72.39a3.22 3.22 0 0 1-1.4.33c-2.18 0-2.68-2.29-2.57-4.86l.33-9.71c.17-4.19-1.79-6.53-5.8-6.53s-10.38 4-10.38 6.86a.71.71 0 0 0 .78.78 6 6 0 0 0 3.18-1.06c.45-.34.5-1 .56-1.9.11-1.73 2-2.51 3.57-2.51 3.46 0 4.13 2.79 4.07 4.85l-.05 2.57c-.06.84-.11 1.34-.95 1.62zM9.37 34.77c.84 2.06 1.67 4.24 2.12 5.8a1 1 0 0 0 .72.22.65.65 0 0 0 .56-.22c.72-1.9 1.28-3.18 1.84-4.58.89-2.29 4.35-10.38 5.13-11.89 1.62-3.13 2.12-4.58 4.07-4.86l.84-.11a1 1 0 0 0-.11-1.39c-1.56.11-2.51.17-3.91.17q-1.59 0-4.19-.17a1 1 0 0 0-.11 1.39l1.28.17c.67.11 1 .33 1 .84a12.55 12.55 0 0 1-1 3.46c-.56 1.45-2.45 6.31-3.18 8.2a6.82 6.82 0 0 1-1.06 2.12 9.14 9.14 0 0 1-.89-1.78c-1.28-2.9-2.9-6.81-4.19-10.66-.56-1.67-.5-2 1.23-2.23l.67-.11a1 1 0 0 0-.06-1.39c-1.9.11-3 .17-4.52.17-1.9 0-3.85-.06-5.25-.17-.45.17-.5.95-.17 1.39l1.12.17c2 .28 2.51 2.06 3.35 4.13zM73.88 17.13c-9.26 0-13.5 6.42-13.5 12.44a11.12 11.12 0 0 0 3.24 8.26 10.82 10.82 0 0 0 7.65 2.85 10.17 10.17 0 0 0 9.3-5.68.88.88 0 0 0-1-.78 6.81 6.81 0 0 1-6.19 3.35c-6 0-9-5.19-9-9.54 0-5.92 3.8-9 7.7-9a7.61 7.61 0 0 1 5.58 3 1 1 0 0 0 .78.39c.67 0 1.23-1.06 1.23-2.06a3.16 3.16 0 0 0-.84-2.23 13.94 13.94 0 0 0-5-.95M139.11 33.65c0 4-.06 4.52-2.12 4.86l-1 .17a1 1 0 0 0 .11 1.39c1.56-.11 3.07-.17 5.08-.17s3.57.06 5.41.17a1 1 0 0 0 .11-1.39l-1.34-.17c-2-.28-2.12-.84-2.12-4.86v-9.6c0-3.85-2.18-6.92-6.64-6.92A14 14 0 0 0 129 20a1.75 1.75 0 0 1-1.39.45c-1.56-2.29-3.13-3.29-5.92-3.29a13.41 13.41 0 0 0-7.41 2.84.59.59 0 0 1-.61-.62c0-.5 0-1.34.11-2.62a.65.65 0 0 0-.61-.39 30.38 30.38 0 0 1-5.58 2.73.76.76 0 0 0-.06 1l.5.33c1.51 1 1.51 1.28 1.51 3.46v9.77c0 4-.06 4.58-2.12 4.86l-1.34.17a1 1 0 0 0 .11 1.39c1.73-.11 3.4-.17 5.41-.17s3.57.06 5.08.17a1 1 0 0 0 .11-1.39l-1-.17c-2-.34-2.12-.84-2.12-4.86V25c0-1.79.28-2.51.84-3.18a6 6 0 0 1 4.69-2c3.46 0 5.14 2 5.14 5.75v8.09c0 4-.06 4.52-2.12 4.86l-1 .17a1 1 0 0 0 .11 1.39c1.56-.11 3.07-.17 5.08-.17s3.57.06 5.25.17a1 1 0 0 0 .11-1.39l-1.17-.17c-2-.28-2.12-.84-2.12-4.86v-8.55c0-2 .17-2.51.84-3.35a6 6 0 0 1 4.63-2c3.52 0 5.19 2 5.19 5.75zM154 23.61c0-2.18.11-2.79.67-3.18a7.28 7.28 0 0 1 3.8-.89c5.53 0 8.48 4.47 8.48 10.21 0 4.8-2.07 9.26-7.31 9.26a5.32 5.32 0 0 1-4.24-1.84 7.73 7.73 0 0 1-1.4-4.86zM149.83 35c0 2.9-.06 4-.11 4.74a.61.61 0 0 0 .56.34c.11 0 .17 0 .22-.06.28-.39.73-.84 1.17-.84A18 18 0 0 1 154 40a14.27 14.27 0 0 0 4.74.73c7.48 0 12.84-5.19 12.84-12.61 0-6.14-4.3-10.94-10.66-10.94a12.88 12.88 0 0 0-6.4 1.82c-.34 0-.56-.22-.56-1.17V7.25c0-2.45.11-5 .22-6.92a.61.61 0 0 0-.56-.33 51.5 51.5 0 0 1-6.08 2.34.85.85 0 0 0 0 1.12l.56.34c1.67 1 1.73 1.34 1.73 4.63zM178.25 3a2.89 2.89 0 0 0-3 3 2.88 2.88 0 0 0 5.75-.2 2.7 2.7 0 0 0-2.75-2.8m-1.84 30.69c0 4-.06 4.58-2.12 4.86l-1.17.17a1 1 0 0 0 .11 1.39c1.56-.11 3.24-.17 5.24-.17s3.57.06 5.25.17a1 1 0 0 0 .11-1.39l-1.17-.17c-2-.28-2.12-.84-2.12-4.86v-10c0-2.29.11-5 .22-6.92-.06-.22-.28-.33-.56-.33a38.28 38.28 0 0 1-5.75 2.73.77.77 0 0 0-.06 1l.5.33c1.51 1 1.51 1.28 1.51 3.46zM87.76 34.82c0-2.18 1.62-3 4.91-4.13a10.47 10.47 0 0 1 2.33-.55c.33 0 .56.11.56.72l-.11 3.29a3.29 3.29 0 0 1-.73 2.62 6.31 6.31 0 0 1-3.4 1.39 3.36 3.36 0 0 1-3.52-3.35m1.34 5.86a8.27 8.27 0 0 0 4-1.39 8.57 8.57 0 0 1 2.18-1.12c.34 0 .67.45.89.78a4.46 4.46 0 0 0 3.63 1.73 5.86 5.86 0 0 0 4.69-2.45c0-.39-.17-.73-.39-.73s-.45.22-.72.39a3.19 3.19 0 0 1-1.4.34c-2.18 0-2.68-2.29-2.57-4.86l.33-9.71c.17-4.19-1.79-6.53-5.8-6.53s-10.38 4-10.38 6.86a.7.7 0 0 0 .78.78 6 6 0 0 0 3.18-1.06c.45-.33.5-1 .56-1.9.11-1.73 2-2.51 3.57-2.51 3.46 0 4.13 2.79 4.07 4.86l-.05 2.57c-.06.84-.11 1.34-.95 1.62l-6.64 2.4c-3.57 1.28-4.63 2.57-4.63 4.74a5.22 5.22 0 0 0 1.73 3.91 5.77 5.77 0 0 0 3.91 1.28M176.11 48a3.7 3.7 0 0 1 2.48-.89q3 0 3.69 3.41h-7.56a4.4 4.4 0 0 1 1.39-2.52m6.15-.6a5.2 5.2 0 0 0-7.5.17 6.08 6.08 0 0 0-1.52 4.24 6.24 6.24 0 0 0 1.65 4.45 5.5 5.5 0 0 0 4.17 1.74 7.18 7.18 0 0 0 4.49-1.55V55a6.8 6.8 0 0 1-4.34 1.74 4.57 4.57 0 0 1-3.3-1.36 4.44 4.44 0 0 1-1.4-3.31 4.86 4.86 0 0 1 0-.61h9.2a5.6 5.6 0 0 0-1.5-4.12m-14.35-1.52a4 4 0 0 0-2.67.93 2.87 2.87 0 0 0-1.1 2.27 2.73 2.73 0 0 0 .59 1.71 6.28 6.28 0 0 0 2.58 1.56 7.42 7.42 0 0 1 2.44 1.3 1.67 1.67 0 0 1 .45 1.12 1.81 1.81 0 0 1-.69 1.46 2.69 2.69 0 0 1-1.77.57 8.21 8.21 0 0 1-3.67-1.07v1.22a6.65 6.65 0 0 0 3.5 1.07 4.08 4.08 0 0 0 2.73-.93 2.88 2.88 0 0 0 1.11-2.29 3 3 0 0 0-.61-1.84 5.9 5.9 0 0 0-2.59-1.59 7.35 7.35 0 0 1-2.42-1.27 1.63 1.63 0 0 1-.44-1.09 1.73 1.73 0 0 1 .72-1.41 2.79 2.79 0 0 1 1.78-.57 5.93 5.93 0 0 1 3.2 1.23v-1.34a6.26 6.26 0 0 0-3.12-1m-9.2 0a4 4 0 0 0-2.67.93 2.87 2.87 0 0 0-1.1 2.27 2.73 2.73 0 0 0 .59 1.71 6.25 6.25 0 0 0 2.58 1.56 7.45 7.45 0 0 1 2.44 1.3 1.68 1.68 0 0 1 .45 1.12 1.81 1.81 0 0 1-.69 1.46 2.69 2.69 0 0 1-1.77.57 8.23 8.23 0 0 1-3.67-1.07v1.22a6.66 6.66 0 0 0 3.5 1.07 4.08 4.08 0 0 0 2.73-.93 2.89 2.89 0 0 0 1.11-2.29 3 3 0 0 0-.61-1.84 5.94 5.94 0 0 0-2.57-1.6 7.3 7.3 0 0 1-2.42-1.27 1.62 1.62 0 0 1-.44-1.09 1.73 1.73 0 0 1 .72-1.41 2.79 2.79 0 0 1 1.78-.57 5.93 5.93 0 0 1 3.2 1.19v-1.33a6.24 6.24 0 0 0-3.12-1m-7.64 11.9h1.25V46.09h-1.25zm-3.47 0V46.09h-1.24v8.2a6.23 6.23 0 0 1-1.72 1.93 3.72 3.72 0 0 1-2.07.56 3.06 3.06 0 0 1-2.31-.93 3.54 3.54 0 0 1-.89-2.55v-7.21h-1.24v7.23a4.64 4.64 0 0 0 1.23 3.45 4.24 4.24 0 0 0 3.09 1.23 4.29 4.29 0 0 0 2.18-.5 5.47 5.47 0 0 0 1.67-1.66h.05v1.93zm-15.38-11.9a4 4 0 0 0-2.67.93 2.87 2.87 0 0 0-1.1 2.27 2.73 2.73 0 0 0 .59 1.71 6.27 6.27 0 0 0 2.58 1.56 7.42 7.42 0 0 1 2.44 1.3 1.67 1.67 0 0 1 .45 1.12 1.81 1.81 0 0 1-.69 1.46 2.69 2.69 0 0 1-1.77.57 8.21 8.21 0 0 1-3.67-1.07v1.22a6.65 6.65 0 0 0 3.5 1.07 4.08 4.08 0 0 0 2.73-.93 2.89 2.89 0 0 0 1.1-2.29 3 3 0 0 0-.61-1.84 5.92 5.92 0 0 0-2.59-1.59 7.33 7.33 0 0 1-2.42-1.27 1.63 1.63 0 0 1-.44-1.09 1.73 1.73 0 0 1 .72-1.41 2.78 2.78 0 0 1 1.78-.57 5.93 5.93 0 0 1 3.2 1.19v-1.34a6.25 6.25 0 0 0-3.12-1M151.06 42.7h1.25v2.13h-1.25zM55.35 7.25c0-2.45.11-5.25.17-6.92A.61.61 0 0 0 55 0a39.68 39.68 0 0 1-6 2.34.85.85 0 0 0 0 1.12l.56.34c1.67 1 1.73 1.34 1.73 4.63v25.22c0 4-.06 4.58-2.12 4.85l-1.28.17a1 1 0 0 0 .11 1.4c1.67-.11 3.35-.17 5.36-.17s3.57.05 5.41.17a1 1 0 0 0 .11-1.4l-1.34-.17c-2-.28-2.12-.84-2.12-4.85z"/></g></g></svg>